<?xml version="1.0" encoding="utf-8"?>
<!-- Generator: Adobe Illustrator 26.4.1, SVG Export Plug-In . SVG Version: 6.00 Build 0)  -->
<svg version="1.1" id="Layer_1" xmlns="http://www.w3.org/2000/svg" xmlns:xlink="http://www.w3.org/1999/xlink" x="0px" y="0px"
	 viewBox="0 0 196.1 196.1" style="enable-background:new 0 0 196.1 196.1;" xml:space="preserve">
<style type="text/css">
	.st0{opacity:0.6;}
	.st1{fill:#FFFFFF;}
</style>
<rect width="196.1" height="196.1"/>
<g class="st0">
	<polygon class="st1" points="17.3,22 18.1,22.4 17.5,23 17.1,23.8 16.5,23 15.7,22.8 16.5,22.2 16.7,21.4 	"/>
	<polygon class="st1" points="44.4,22 44.8,22.8 44,22.6 43.4,23 43.4,22.2 43.2,21.6 43.8,21.6 44.6,21.4 	"/>
	<polygon class="st1" points="15.3,68.4 15.3,69 14.7,68.6 14,68.6 14.5,68.2 14.5,67.6 15.1,68 15.7,68 	"/>
	<polygon class="st1" points="85.5,7.3 85.5,7.9 84.9,7.5 84.1,7.3 84.7,6.7 84.9,6.1 85.3,6.5 86.1,6.7 	"/>
	<polygon class="st1" points="63.1,13.6 62.1,14 62.5,12.8 62.1,11.8 63.1,12.2 64.1,11.8 63.9,12.8 64.1,13.8 	"/>
	<polygon class="st1" points="42.6,51.9 41.9,51.9 42.1,51.5 42.1,50.9 42.6,51.1 43.2,51.1 43,51.5 43,52.1 	"/>
	<polygon class="st1" points="97.1,29.5 97.3,28.9 97.7,29.3 98.3,29.3 97.9,29.7 97.9,30.3 97.3,30.1 96.7,29.9 	"/>
	<polygon class="st1" points="14.5,91.2 13.8,91.6 13.8,91 13.4,90.2 14.3,90.4 14.9,90 14.9,90.6 15.3,91.4 	"/>
	<polygon class="st1" points="9.2,81.6 8.8,81.2 9.4,81 9.6,80.6 9.8,81 10.4,81.4 9.8,81.6 9.4,82.1 	"/>
	<polygon class="st1" points="6.5,14.3 5.9,13.8 6.5,13.4 6.9,12.8 7.1,13.4 7.9,13.8 7.3,14.3 6.9,14.9 	"/>
	<polygon class="st1" points="12,4.5 12.2,4.1 12.6,4.3 13.2,4.5 12.8,4.9 12.6,5.5 12.2,5.1 11.6,5.1 	"/>
	<polygon class="st1" points="45,86.3 44.6,86.9 44.4,86.3 44,85.9 44.6,85.7 45,85.3 45,85.9 45.6,86.3 	"/>
	<polygon class="st1" points="81.4,80 81,80.6 80.8,80 80.4,79.6 81,79.4 81.4,79 81.6,79.6 82.1,80 	"/>
	<circle class="st1" cx="17.1" cy="59" r="0.2"/>
	<circle class="st1" cx="27.9" cy="61.7" r="0.2"/>
	<circle class="st1" cx="93.5" cy="11.4" r="0.4"/>
	<circle class="st1" cx="71.9" cy="1.6" r="0.2"/>
	<circle class="st1" cx="33.6" cy="73.1" r="0.4"/>
	<circle class="st1" cx="50.5" cy="62.3" r="0.4"/>
	<circle class="st1" cx="4.7" cy="57" r="0.4"/>
	<circle class="st1" cx="4.7" cy="97.3" r="0.2"/>
	<circle class="st1" cx="46.2" cy="16.9" r="0.4"/>
	<circle class="st1" cx="35.4" cy="33.4" r="0.2"/>
	<circle class="st1" cx="24.2" cy="48.1" r="0.2"/>
	<circle class="st1" cx="31.8" cy="53.5" r="0.2"/>
	<circle class="st1" cx="84.3" cy="20.8" r="0.2"/>
	<circle class="st1" cx="45.2" cy="79" r="0.6"/>
	<circle class="st1" cx="44.8" cy="61.1" r="0.4"/>
	<circle class="st1" cx="2.9" cy="73.9" r="0.2"/>
	<polygon class="st1" points="167.4,14.9 167.2,15.9 166.6,15.1 165.5,14.9 166.3,14.3 166.6,13.2 167.2,14 168.2,14.3 	"/>
	<polygon class="st1" points="164.1,77.8 163.3,79.2 162.7,77.8 161.3,76.8 162.7,76.2 163.5,74.7 164.3,76.2 165.7,77 	"/>
	<polygon class="st1" points="121.1,19.1 120.5,19.1 120.9,18.5 120.9,17.9 121.4,18.3 122,18.3 121.8,18.7 121.8,19.3 	"/>
	<polygon class="st1" points="107.5,96.9 106.7,98.3 105.9,96.9 104.5,96.1 105.9,95.3 106.7,93.9 107.5,95.3 108.9,96.1 	"/>
	<polygon class="st1" points="191.4,80.6 190.6,80.4 191,79.8 191,79.2 191.6,79.6 192.4,79.6 192,80.2 192,81 	"/>
	<polygon class="st1" points="165.3,32.2 164.9,32 165.3,31.8 165.7,31.2 165.9,31.8 166.6,32.2 165.9,32.4 165.5,32.8 	"/>
	<polygon class="st1" points="119.1,58.6 118.7,58 119.5,58 120.1,57.6 120.1,58.4 120.5,59 119.7,59 119.1,59.5 	"/>
	<polygon class="st1" points="98.1,72.9 97.5,72.9 97.7,72.3 97.7,71.7 98.3,72.1 99,72.1 98.5,72.5 98.5,73.1 	"/>
	<polygon class="st1" points="142.7,35.2 141.9,36.6 141.3,35.2 139.9,34.4 141.3,33.6 142.1,32.2 142.9,33.6 144.2,34.4 	"/>
	<polygon class="st1" points="139.7,54.8 138.9,54.8 139.5,54.2 139.5,53.3 140.1,54 140.7,54 140.3,54.6 140.3,55.4 	"/>
	<polygon class="st1" points="141.3,43.8 141.1,43.2 141.7,43.4 142.3,43.4 142.1,43.8 142.1,44.4 141.7,44.2 141.1,44.4 	"/>
	<polygon class="st1" points="98.3,21.4 97.9,20.8 98.8,20.8 99.4,20.4 99.4,21 99.8,21.6 99.2,21.8 98.5,22.2 	"/>
	<polygon class="st1" points="107.3,14.9 107.7,14.3 107.9,14.9 108.5,15.3 107.9,15.5 107.5,15.9 107.3,15.5 106.9,15.1 	"/>
	<polygon class="st1" points="173.7,3.1 174.1,2.4 174.5,3.1 175.3,3.3 174.5,3.7 174.3,4.5 173.9,3.9 173.3,3.7 	"/>
	<polygon class="st1" points="184.1,7.3 184.7,7.3 184.3,7.7 184.3,8.3 183.9,8.1 183.2,8.1 183.5,7.5 183.5,6.9 	"/>
	<polygon class="st1" points="157.6,52.7 157.2,52.3 157.8,52.1 158,51.7 158.2,52.3 158.8,52.5 158.2,52.7 157.8,53.3 	"/>
	<polygon class="st1" points="107.3,50.9 106.9,50.5 107.5,50.3 107.7,49.9 107.9,50.5 108.5,50.7 107.9,50.9 107.5,51.5 	"/>
	<polygon class="st1" points="118.5,86.3 118.1,85.9 118.7,85.7 118.9,85.1 119.1,85.7 119.7,86.1 119.1,86.3 118.7,86.7 	"/>
	<polygon class="st1" points="185.9,30.9 185.5,30.5 186.1,30.3 186.3,29.7 186.5,30.3 187.1,30.7 186.5,30.9 186.1,31.4 	"/>
	<polygon class="st1" points="181.2,175.5 180.4,175.3 181.2,174.7 181.4,173.7 182,174.5 182.8,174.9 182.2,175.5 181.8,176.3 	"/>
	<polygon class="st1" points="165.7,107.7 165.3,107.1 166.1,107.1 166.8,106.7 166.8,107.3 167.2,107.9 166.6,108.1 165.9,108.5 	
		"/>
	<polygon class="st1" points="126.2,134.6 126,133.4 127.3,134 128.5,133.8 127.9,135 128.1,136.2 126.8,135.6 125.6,135.8 	"/>
	<polygon class="st1" points="113,190.4 113.2,189.6 113.6,190.2 114.4,190.4 113.8,190.8 113.6,191.6 113.2,191 112.4,191 	"/>
	<polygon class="st1" points="144.4,121.8 145.2,121.6 145,122.4 145.2,123 144.6,122.8 143.7,123.2 144,122.4 143.7,121.8 	"/>
	<polygon class="st1" points="188.3,154.7 188.7,154.9 188.3,155.4 188.3,156 187.9,155.6 187.3,155.4 187.7,154.9 187.7,154.3 	"/>
	<polygon class="st1" points="106.3,134 105.9,133.4 106.7,133.4 107.3,133.2 107.3,133.8 107.5,134.6 106.9,134.4 106.1,134.8 	"/>
	<polygon class="st1" points="133.2,99 133.2,98.3 133.8,98.8 134.4,99 134,99.4 133.8,100 133.4,99.6 132.8,99.6 	"/>
	<polygon class="st1" points="164.3,148.4 163.1,147.4 164.7,146.8 165.7,145.6 166.1,147.2 167.6,148.2 165.9,148.6 164.9,149.9 	
		"/>
	<polygon class="st1" points="106.9,158.4 107.5,158.8 106.9,159.2 106.5,159.8 106.3,159.2 105.5,158.8 106.3,158.6 106.5,157.8 	
		"/>
	<polygon class="st1" points="192,183.5 192.8,183.9 192,184.1 191.6,184.9 191.4,184.1 190.6,183.9 191.4,183.5 191.6,182.8 	"/>
	<polygon class="st1" points="186.5,193 186.5,193.6 185.9,193.2 185.3,193.2 185.7,192.8 185.9,192.2 186.3,192.6 186.9,192.6 	"/>
	<polygon class="st1" points="145,160.9 145.4,160.2 145.6,160.9 146,161.3 145.4,161.5 145,161.9 145,161.3 144.4,160.9 	"/>
	<circle class="st1" cx="174.3" cy="149.4" r="0.2"/>
	<circle class="st1" cx="166.8" cy="144.2" r="0.2"/>
	<circle class="st1" cx="134" cy="143.7" r="0.4"/>
	<circle class="st1" cx="100.6" cy="162.7" r="0.4"/>
	<circle class="st1" cx="114.4" cy="176.9" r="0.2"/>
	<circle class="st1" cx="165.9" cy="133.4" r="0.4"/>
	<circle class="st1" cx="183.2" cy="154.9" r="0.4"/>
	<polygon class="st1" points="31.2,182.8 31.4,181.8 32,182.4 33,182.6 32.2,183.5 32,184.3 31.4,183.7 30.3,183.5 	"/>
	<polygon class="st1" points="96.1,158.2 96.7,157.8 96.9,158.4 97.5,159 96.7,159.2 96.1,159.6 96.1,159 95.5,158.4 	"/>
	<polygon class="st1" points="77.4,178.6 78,178.6 77.6,179 77.6,179.6 77.2,179.4 76.6,179.4 77,178.8 76.8,178.2 	"/>
	<polygon class="st1" points="79.4,139.1 79.8,139.7 79,139.7 78.4,139.9 78.4,139.3 78,138.5 78.8,138.7 79.4,138.3 	"/>
	<polygon class="st1" points="52.7,186.9 52.7,187.5 52.1,187.1 51.5,187.1 51.9,186.5 51.9,185.9 52.3,186.3 52.9,186.3 	"/>
	<polygon class="st1" points="62.3,102.8 62.9,102.4 62.9,103.2 63.3,103.8 62.5,103.8 61.9,104.2 61.9,103.4 61.5,102.8 	"/>
	<polygon class="st1" points="55.8,162.5 56.6,161.1 57.4,162.5 58.6,163.3 57.2,163.9 56.4,165.3 55.8,163.9 54.4,163.1 	"/>
	<polygon class="st1" points="58.8,142.7 59.7,142.9 59.3,143.5 59,144.2 58.4,143.7 57.8,143.7 58.2,143.1 58.2,142.3 	"/>
	<polygon class="st1" points="38.1,106.7 37.7,107.5 37.3,106.9 36.6,106.7 37.3,106.1 37.5,105.5 37.9,106.1 38.7,106.3 	"/>
	<polygon class="st1" points="27.7,102.6 27.1,102.6 27.5,102 27.5,101.4 27.9,101.8 28.5,101.8 28.3,102.2 28.3,102.8 	"/>
	<polygon class="st1" points="100.2,176.1 100.6,176.7 99.8,176.9 99.2,177.3 99.2,176.5 98.8,175.9 99.4,175.9 100,175.5 	"/>
	<polygon class="st1" points="91.2,182.8 90.8,183.2 90.6,182.8 90,182.4 90.6,182.2 91,181.6 91.2,182.2 91.6,182.4 	"/>
	<polygon class="st1" points="24.8,194.4 24.4,195.3 24,194.7 23.4,194.2 24,193.8 24.2,193.2 24.6,193.8 25.5,194 	"/>
	<polygon class="st1" points="14.5,190.4 13.8,190.4 14.3,189.8 14.3,189.2 14.7,189.6 15.3,189.6 15.1,190 15.1,190.6 	"/>
	<polygon class="st1" points="40.9,144.8 41.3,145.2 40.9,145.4 40.5,146 40.3,145.4 39.7,145 40.3,144.8 40.7,144.4 	"/>
	<polygon class="st1" points="91.2,146.6 91.6,147 91,147.2 90.8,147.8 90.6,147.2 90,146.8 90.6,146.6 91,146.2 	"/>
	<polygon class="st1" points="80,111.4 80.4,111.8 80,112 79.6,112.4 79.4,112 78.8,111.6 79.4,111.4 79.8,110.8 	"/>
	<circle class="st1" cx="148" cy="53.5" r="0.2"/>
	<circle class="st1" cx="140.3" cy="84.3" r="0.2"/>
	<circle class="st1" cx="145.4" cy="66.4" r="0.2"/>
	<circle class="st1" cx="131.7" cy="54.4" r="0.4"/>
	<circle class="st1" cx="102.8" cy="105.5" r="0.2"/>
	<circle class="st1" cx="93.5" cy="114.4" r="0.2"/>
	<circle class="st1" cx="89" cy="96.9" r="0.4"/>
	<circle class="st1" cx="167.4" cy="87.6" r="0.2"/>
	<circle class="st1" cx="162.7" cy="97.5" r="0.2"/>
	<circle class="st1" cx="171.6" cy="75.7" r="0.4"/>
	<circle class="st1" cx="155.6" cy="70.7" r="0.2"/>
	<circle class="st1" cx="138.5" cy="28.3" r="0.2"/>
	<circle class="st1" cx="128.9" cy="34" r="0.2"/>
	<polygon class="st1" points="49.9,159.8 49.3,159.6 49.7,159.2 49.9,158.8 50.3,159.2 50.9,159.4 50.3,159.8 50.3,160.2 	"/>
	<circle class="st1" cx="58.6" cy="163.5" r="0.2"/>
	<circle class="st1" cx="54.2" cy="173.5" r="0.2"/>
	<circle class="st1" cx="63.1" cy="151.7" r="0.4"/>
	<circle class="st1" cx="46.8" cy="146.6" r="0.2"/>
	<polygon class="st1" points="18.7,132.5 18.9,132.1 19.1,132.5 19.8,133 19.1,133.2 18.7,133.8 18.5,133.2 18.1,132.8 	"/>
	<circle class="st1" cx="4.3" cy="131.5" r="0.2"/>
</g>
</svg>
