<?xml version="1.0" encoding="UTF-8"?><svg id="publicdomainvectors.org" xmlns="http://www.w3.org/2000/svg" viewBox="0 0 516.22 554.53"><defs><style>.cls-1{fill:#f4a51d;}.cls-2,.cls-3{fill:#6a7279;}.cls-4{fill:#e9f1fa;}.cls-5{fill:#ed1b68;}.cls-6{fill:#ffcd05;}.cls-7{fill:#fef081;}.cls-8{fill:#f1668c;}.cls-9{fill:#bad532;}.cls-10{fill:#d81b59;}.cls-11{fill:#e19525;}.cls-12{fill:#d7dfe8;}.cls-13{fill:#c7de7f;}.cls-14{fill:#94ac3c;}.cls-15{fill:#5a99d2;}.cls-16{fill:#70a9dc;}.cls-17{fill:#82983b;}.cls-18{fill:#4c8cca;}.cls-19{fill:#bcc6d0;}.cls-19,.cls-3{fill-rule:evenodd;}</style></defs><rect class="cls-13" x="33.09" y="277.51" width="160.12" height="160.12" transform="translate(-213.38 173.08) rotate(-42.97)"/><rect class="cls-7" x="337.58" y="18.52" width="160.12" height="160.12" transform="translate(210.77 474.55) rotate(-74.46)"/><g><rect class="cls-12" x="137.98" y="125.43" width="290.49" height="383.24" transform="translate(-116.09 171.14) rotate(-28.15)"/><g><rect class="cls-2" x="78.28" y="212.76" width="20.12" height="12.03" transform="translate(-92.77 67.57) rotate(-28.15)"/><g><path class="cls-19" d="M73.92,202.3h0c1.08-.58,2.43-.17,3.01,.91l7.5,14.02c.58,1.08,.17,2.43-.91,3.01h0c-1.08,.58-2.43,.17-3.01-.91l-7.5-14.02c-.58-1.08-.17-2.43,.91-3.01Z"/><path class="cls-19" d="M82.63,197.64h0c1.08-.58,2.43-.17,3.01,.91l7.5,14.02c.58,1.08,.17,2.43-.91,3.01h0c-1.08,.58-2.43,.17-3-.91l-7.5-14.02c-.58-1.08-.17-2.43,.91-3.01Z"/></g></g><g><g><path class="cls-3" d="M104.28,203.42c5.91-3.16,11.83-6.33,17.74-9.49,1.89,3.54,3.78,7.07,5.68,10.61-5.91,3.17-11.83,6.33-17.74,9.5-1.89-3.54-3.78-7.07-5.68-10.61Z"/><path class="cls-19" d="M101.57,187.5h0c1.08-.58,2.43-.17,3.01,.91,2.5,4.67,5,9.35,7.5,14.02,.58,1.08,.17,2.43-.91,3.01h0c-1.08,.58-2.43,.17-3.01-.91-2.5-4.67-5-9.35-7.5-14.02-.58-1.08-.17-2.43,.91-3.01Z"/><path class="cls-19" d="M110.29,182.84h0c1.08-.58,2.43-.17,3.01,.91,2.5,4.67,5,9.35,7.5,14.02,.58,1.08,.17,2.43-.91,3.01h0c-1.08,.58-2.43,.17-3.01-.91-2.5-4.67-5-9.35-7.5-14.02-.58-1.08-.17-2.43,.91-3.01Z"/></g><g><path class="cls-3" d="M131.93,188.62c5.91-3.16,11.83-6.33,17.74-9.5,1.89,3.54,3.78,7.07,5.68,10.61-5.91,3.17-11.83,6.33-17.74,9.5-1.89-3.54-3.78-7.07-5.68-10.61Z"/><path class="cls-19" d="M129.22,172.7h0c1.08-.58,2.43-.17,3.01,.91,2.5,4.67,5,9.35,7.5,14.02,.58,1.08,.17,2.43-.91,3.01h0c-1.08,.58-2.43,.17-3.01-.91-2.5-4.67-5-9.35-7.5-14.02-.58-1.08-.17-2.43,.91-3.01Z"/><path class="cls-19" d="M137.94,168.04h0c1.08-.58,2.43-.17,3.01,.91,2.5,4.67,5,9.35,7.5,14.02,.58,1.08,.17,2.43-.91,3.01h0c-1.08,.58-2.43,.17-3.01-.91-2.5-4.67-5-9.35-7.5-14.02-.58-1.08-.17-2.43,.91-3.01Z"/></g><g><path class="cls-3" d="M159.59,173.82c5.91-3.17,11.83-6.33,17.74-9.5,1.89,3.54,3.78,7.07,5.68,10.61-5.91,3.16-11.83,6.33-17.74,9.5-1.89-3.54-3.78-7.07-5.68-10.61Z"/><path class="cls-19" d="M156.88,157.91h0c1.08-.58,2.43-.17,3.01,.91,2.5,4.67,5,9.35,7.5,14.02,.58,1.08,.17,2.43-.91,3.01h0c-1.08,.58-2.43,.17-3.01-.91-2.5-4.67-5-9.35-7.5-14.02-.58-1.08-.17-2.43,.91-3.01Z"/><path class="cls-19" d="M165.59,153.24h0c1.08-.58,2.43-.17,3.01,.91,2.5,4.67,5,9.35,7.5,14.02,.58,1.08,.17,2.43-.91,3.01h0c-1.08,.58-2.43,.17-3.01-.91-2.5-4.67-5-9.35-7.5-14.02-.58-1.08-.17-2.43,.91-3.01Z"/></g><g><path class="cls-3" d="M187.24,159.02c5.91-3.17,11.83-6.33,17.74-9.5,1.89,3.54,3.79,7.07,5.68,10.61-5.91,3.16-11.83,6.33-17.74,9.5-1.89-3.54-3.78-7.07-5.68-10.61Z"/><path class="cls-19" d="M184.53,143.11h0c1.08-.58,2.43-.17,3.01,.91,2.5,4.67,5,9.35,7.5,14.02,.58,1.08,.17,2.43-.91,3.01h0c-1.08,.58-2.43,.17-3.01-.91-2.5-4.67-5-9.35-7.5-14.02-.58-1.08-.17-2.43,.91-3.01Z"/><path class="cls-19" d="M193.25,138.44h0c1.08-.58,2.43-.17,3.01,.91,2.5,4.67,5,9.35,7.5,14.02,.58,1.08,.17,2.43-.91,3h0c-1.08,.58-2.43,.17-3.01-.91-2.5-4.67-5-9.35-7.5-14.02-.58-1.08-.17-2.43,.91-3.01Z"/></g><g><path class="cls-3" d="M214.89,144.23c5.91-3.17,11.83-6.33,17.74-9.5,1.89,3.54,3.78,7.07,5.68,10.61-5.92,3.16-11.83,6.33-17.74,9.5-1.89-3.54-3.78-7.07-5.68-10.61Z"/><path class="cls-19" d="M212.18,128.31h0c1.08-.58,2.43-.17,3.01,.91,2.5,4.67,5,9.35,7.5,14.02,.58,1.08,.17,2.43-.91,3.01h0c-1.08,.58-2.43,.17-3.01-.91-2.5-4.67-5-9.35-7.5-14.02-.58-1.08-.17-2.43,.91-3.01Z"/><path class="cls-19" d="M220.9,123.64h0c1.08-.58,2.43-.17,3,.91,2.5,4.67,5,9.35,7.5,14.02,.58,1.08,.17,2.43-.91,3h0c-1.08,.58-2.43,.17-3.01-.91-2.5-4.67-5-9.35-7.5-14.02-.58-1.08-.17-2.43,.91-3.01Z"/></g><g><path class="cls-3" d="M242.55,129.43c5.91-3.17,11.83-6.33,17.74-9.5,1.89,3.54,3.79,7.07,5.68,10.61-5.92,3.16-11.83,6.33-17.74,9.5-1.89-3.54-3.78-7.07-5.68-10.61Z"/><path class="cls-19" d="M239.84,113.51h0c1.08-.58,2.43-.17,3.01,.91,2.5,4.67,5,9.35,7.5,14.02,.58,1.08,.17,2.43-.91,3.01h0c-1.08,.58-2.43,.17-3.01-.91-2.5-4.67-5-9.35-7.5-14.02-.58-1.08-.17-2.43,.91-3.01Z"/><path class="cls-19" d="M248.55,108.85h0c1.08-.58,2.43-.17,3.01,.91,2.5,4.67,5,9.35,7.5,14.02,.58,1.08,.17,2.43-.91,3.01h0c-1.08,.58-2.43,.17-3.01-.91-2.5-4.67-5-9.35-7.5-14.02-.58-1.08-.17-2.43,.91-3.01Z"/></g><g><path class="cls-3" d="M270.2,114.63c5.91-3.16,11.83-6.33,17.74-9.5,1.89,3.54,3.79,7.07,5.68,10.61-5.91,3.17-11.83,6.33-17.74,9.5-1.89-3.54-3.78-7.07-5.68-10.61Z"/><path class="cls-19" d="M267.49,98.71h0c1.08-.58,2.43-.17,3.01,.91,2.5,4.67,5,9.35,7.5,14.02,.58,1.08,.17,2.43-.91,3.01h0c-1.08,.58-2.43,.17-3.01-.91-2.5-4.67-5-9.35-7.5-14.02-.58-1.08-.17-2.43,.91-3.01Z"/><path class="cls-19" d="M276.21,94.05h0c1.08-.58,2.43-.17,3,.91,2.5,4.67,5,9.35,7.5,14.02,.58,1.08,.17,2.43-.91,3.01h0c-1.08,.58-2.43,.17-3.01-.91-2.5-4.67-5-9.35-7.5-14.02-.58-1.08-.17-2.43,.91-3.01Z"/></g></g><g><rect class="cls-2" x="299.5" y="94.37" width="20.12" height="12.03" transform="translate(-10.74 157.94) rotate(-28.15)"/><g><path class="cls-19" d="M295.14,83.91h0c1.08-.58,2.43-.17,3.01,.91l7.5,14.02c.58,1.08,.17,2.43-.91,3.01h0c-1.08,.58-2.43,.17-3-.91l-7.5-14.02c-.58-1.08-.17-2.43,.91-3.01Z"/><path class="cls-19" d="M303.86,79.25h0c1.08-.58,2.43-.17,3.01,.91l7.5,14.02c.58,1.08,.17,2.43-.91,3.01h0c-1.08,.58-2.43,.17-3.01-.91l-7.5-14.02c-.58-1.08-.17-2.43,.91-3.01Z"/></g></g></g><g><rect class="cls-18" x="207.57" y="267.18" width="33.42" height="58.88" transform="translate(-32.87 27.99) rotate(-6.66)"/><rect class="cls-4" x="216.38" y="347.87" width="38.73" height="93.9" transform="translate(-44.18 29.99) rotate(-6.66)"/><rect class="cls-16" x="221.36" y="441.43" width="40.45" height="6.9" transform="translate(-49.93 30.99) rotate(-6.65)"/><rect class="cls-15" x="224.84" y="448.24" width="36.6" height="19.96" transform="translate(-51.47 31.27) rotate(-6.66)"/><rect class="cls-15" x="207.68" y="315.46" width="42.17" height="39.12" transform="translate(-37.29 28.78) rotate(-6.66)"/></g><g><rect class="cls-17" x="419.84" y="283.01" width="58.89" height="33.42" transform="translate(41.64 654.01) rotate(-74.7)"/><rect class="cls-4" x="376.25" y="375.73" width="93.9" height="38.73" transform="translate(-69.55 699.05) rotate(-74.7)"/><rect class="cls-9" x="406.45" y="423.47" width="6.9" height="40.45" transform="translate(-126.24 721.99) rotate(-74.7)"/><rect class="cls-14" x="396.37" y="438.35" width="19.96" height="36.6" transform="translate(-141.34 728.1) rotate(-74.7)"/><rect class="cls-14" x="419.52" y="315.93" width="39.12" height="42.17" transform="translate(-1.84 671.61) rotate(-74.7)"/></g><g><rect class="cls-10" x="80.22" y="329.47" width="58.88" height="33.42" transform="translate(-235.56 233.52) rotate(-54.35)"/><rect class="cls-4" x="120.34" y="246.48" width="93.9" height="38.73" transform="translate(-146.24 246.84) rotate(-54.35)"/><rect class="cls-8" x="193.21" y="204.67" width="6.9" height="40.45" transform="translate(-100.71 253.62) rotate(-54.35)"/><rect class="cls-5" x="194.51" y="195.68" width="19.96" height="36.6" transform="translate(-88.58 255.42) rotate(-54.35)"/><rect class="cls-5" x="112.63" y="293.68" width="39.12" height="42.17" transform="translate(-200.63 238.74) rotate(-54.35)"/></g><g><rect class="cls-11" x="331.34" y="185.06" width="58.88" height="33.42" transform="translate(130.45 545.01) rotate(-85.35)"/><rect class="cls-4" x="305.83" y="280.95" width="93.9" height="38.72" transform="translate(24.87 627.6) rotate(-85.35)"/><rect class="cls-6" x="345.24" y="330.32" width="6.9" height="40.45" transform="translate(-28.95 669.69) rotate(-85.35)"/><rect class="cls-1" x="337.62" y="345.62" width="19.96" height="36.6" transform="translate(-43.27 680.92) rotate(-85.36)"/><rect class="cls-1" x="338.09" y="219.21" width="39.12" height="42.17" transform="translate(89.17 577.31) rotate(-85.35)"/></g></svg>