<?xml version="1.0" encoding="utf-8"?>
<!-- Generator: Adobe Illustrator 26.4.1, SVG Export Plug-In . SVG Version: 6.00 Build 0)  -->
<svg version="1.1" id="Publicdomainvectors.org" xmlns="http://www.w3.org/2000/svg" xmlns:xlink="http://www.w3.org/1999/xlink"
	 x="0px" y="0px" viewBox="0 0 621.5 583.5" style="enable-background:new 0 0 621.5 583.5;" xml:space="preserve">
<style type="text/css">
	.st0{fill-rule:evenodd;clip-rule:evenodd;fill:url(#SVGID_1_);}
	.st1{fill-rule:evenodd;clip-rule:evenodd;fill:#E9BBD7;}
	.st2{fill-rule:evenodd;clip-rule:evenodd;fill:#BC5AA3;}
	.st3{fill-rule:evenodd;clip-rule:evenodd;fill:#C97AB2;}
	.st4{fill-rule:evenodd;clip-rule:evenodd;fill:#8A469B;}
	.st5{fill-rule:evenodd;clip-rule:evenodd;fill:#C773AF;}
	.st6{fill-rule:evenodd;clip-rule:evenodd;fill:#D691BF;}
	.st7{fill-rule:evenodd;clip-rule:evenodd;fill:#AE4E9D;}
	.st8{fill-rule:evenodd;clip-rule:evenodd;fill:#7E3D97;}
	.st9{fill-rule:evenodd;clip-rule:evenodd;fill:#824198;}
	.st10{fill-rule:evenodd;clip-rule:evenodd;fill:#5A286F;}
	.st11{fill-rule:evenodd;clip-rule:evenodd;fill:#6B2C8B;}
	.st12{fill-rule:evenodd;clip-rule:evenodd;fill:#511E59;}
	.st13{fill-rule:evenodd;clip-rule:evenodd;fill:#622B7C;}
	.st14{fill-rule:evenodd;clip-rule:evenodd;fill:#43164B;}
	.st15{fill-rule:evenodd;clip-rule:evenodd;fill:#5C2669;}
</style>
<radialGradient id="SVGID_1_" cx="310.7633" cy="240.8229" r="317.0822" gradientTransform="matrix(0.9245 0.3812 -0.3246 0.7871 101.6389 -16.2942)" gradientUnits="userSpaceOnUse">
	<stop  offset="0" style="stop-color:#AE4E9D"/>
	<stop  offset="0.2569" style="stop-color:#AB4D9B;stop-opacity:0.7431"/>
	<stop  offset="0.4109" style="stop-color:#A34993;stop-opacity:0.5891"/>
	<stop  offset="0.5378" style="stop-color:#954386;stop-opacity:0.4622"/>
	<stop  offset="0.6499" style="stop-color:#813A74;stop-opacity:0.3501"/>
	<stop  offset="0.7523" style="stop-color:#662E5C;stop-opacity:0.2477"/>
	<stop  offset="0.8476" style="stop-color:#461F3F;stop-opacity:0.1524"/>
	<stop  offset="0.9357" style="stop-color:#210F1D;stop-opacity:6.425911e-02"/>
	<stop  offset="1" style="stop-color:#000000;stop-opacity:0"/>
</radialGradient>
<path class="st0" d="M603.9,412.6c-56.8,137.8-234.2,195.5-396.1,128.7S-39.2,308.7,17.6,170.9S251.8-24.6,413.7,42.2
	S660.7,274.8,603.9,412.6z"/>
<g>
	<path class="st1" d="M466.2,304.6c84.9,44.5,137.4,87.5,128.7,110.2c-12.8,33.1-151.6,10.4-310-50.8
		C126.4,302.8,10.4,221.1,21.2,193.2c10.8-27.9,81.2-18.3,173.9,5.8c-2.5,3.5-5,7.1-7.2,10.8c-64-14.2-111.7-20.9-120.3,1.4
		c-8.6,22.3,88.2,91.8,220.9,143.1c132.7,51.3,249,70.3,259.8,42.6c6.5-16.8-27.1-46.9-84.1-79.4
		C465.1,313.2,465.7,308.9,466.2,304.6z"/>
	<path class="st1" d="M372.8,147.1c78.9,30.5,118.1,119.1,87.6,197.9c-30.5,78.9-119.1,118.1-197.9,87.6
		c-78.9-30.5-118.1-119.1-87.6-197.9C205.3,155.9,294,116.6,372.8,147.1z"/>
	<path class="st2" d="M374.3,150.9c78.8,30.5,118.1,119.1,87.6,197.9c-30.5,78.8-119.1,118.1-197.9,87.6
		c-78.8-30.5-118.1-119.1-87.6-197.9C206.8,159.6,295.5,120.4,374.3,150.9z"/>
	<path class="st3" d="M327.3,161.3c44.3,10.9,69.5,47.5,56.2,81.8c-13.3,34.3-59.9,53.3-104.2,42.4c-44.3-10.9-69.5-47.5-56.2-81.8
		C236.4,169.4,283,150.4,327.3,161.3z"/>
	<path class="st4" d="M429.7,399.5c-26.6,27.7-62.8,44.5-101,46.9c-12.3-38.9-48.7-75.9-99.2-95.4c-19.1-7.4-38.3-11.5-56.8-12.8
		c-4-13-6.2-26.7-6.6-40.5L429.7,399.5z"/>
	<path class="st5" d="M450.9,215.7c3.3,5.6,6.3,11.4,8.8,17.4c-55-7.6-137.7-30.2-230-63.8c8.9-6.4,18.5-11.8,28.5-16.2
		C334.1,182.5,403.4,204.6,450.9,215.7L450.9,215.7z M436.9,391.5c-3.6,4.4-7.5,8.5-11.6,12.4c-55.8-5.4-149-30.2-253.4-68.8
		c-2.7-9.7-4.5-19.7-5.3-29.9c13.2,5.4,26.9,10.8,40.9,16.2C305.7,359.5,393.2,385.7,436.9,391.5L436.9,391.5z M463.8,343.5
		c-65-7.6-158.2-46.5-249.6-108.4c-9.3-6.3-18.3-12.6-27-19.1c-4.1,7.1-7.8,14.5-10.8,22.4c-0.1,0.2-0.2,0.5-0.3,0.7
		C297.8,315,404.7,351.2,462,348.6C462.6,346.9,463.2,345.2,463.8,343.5z"/>
	<path class="st6" d="M386.7,218.4c-41.4-10.3-89.4-24.9-140.7-43.1c9.3-6.7,20.4-11.6,32.5-14.3c35.6,13.3,69.5,25,99.8,34.5
		C382.8,202.6,385.7,210.3,386.7,218.4L386.7,218.4z M304.2,288.6c-8.2,0-16.6-1-24.9-3.1c-28-6.9-48.4-24.1-56.2-44.5
		C250.4,259.1,277.7,275,304.2,288.6z"/>
	<path class="st7" d="M370.6,376.7l59.1,22.8c-1.4,1.5-2.9,3-4.4,4.4c-39.8-3.9-98.5-17.5-166.8-39c-9-5.3-18.7-10-28.9-13.9
		c-15.7-6.1-31.5-10-46.9-11.8c-3.6-1.3-7.2-2.6-10.8-4c-2.7-9.7-4.5-19.7-5.3-29.9c13.2,5.4,26.9,10.8,40.9,16.2
		C268.7,345.2,325.8,364.3,370.6,376.7z"/>
	<path class="st7" d="M422.9,406.2c-22.9,21.1-51.9,34.8-82.7,39.1c-11.9-3.8-24.1-8-36.3-12.8c-46-17.8-86.4-39.5-116.8-61.5
		c-2.6-4.4-5-9-7.1-13.7c3.6,1.5,7.3,2.9,11,4.3C275.7,394.4,358.2,409,422.9,406.2L422.9,406.2z M457.5,359
		c-54.6-7.2-119.4-24-186.5-50c-36.6-14.1-70.9-29.8-101.8-46.2c-0.7,3.5-1.3,7-1.8,10.5c48.9,27.3,107.6,54.8,171.9,79.6
		c34.4,13.3,68.2,24.9,100.5,34.9C446.7,379,452.6,369.4,457.5,359L457.5,359z M472.1,287.1c-38.8-9.8-83.1-24-129.4-41.8
		c-49.7-19.2-94.8-40-131.6-60.1c-7.9,7.8-15,16.6-21.1,26.2c49.4,33.7,115.8,68.2,191.3,97.3c28.8,11.1,57.1,20.8,84.4,28.9
		C470.8,320.8,472.8,303.8,472.1,287.1z"/>
	<path class="st2" d="M375.5,257.4c-10.9,14.3-28.3,24.4-48.3,28.8c-39.6-17.6-75.7-36.5-106.9-55.4c-1.5-8.8-0.7-18,2.8-27.1
		c1.3-3.4,2.9-6.6,4.8-9.6c33.4,17.3,72.4,34.8,114.8,51.2C353.8,249.5,364.7,253.6,375.5,257.4z"/>
	<path class="st8" d="M422.9,406.2c-22.9,21.1-51.9,34.8-82.7,39.1c-4.5-1.4-9-2.9-13.5-4.4c-6.3-16.7-17-33-31.3-47.4
		C341.9,403.6,385.4,407.8,422.9,406.2z"/>
	<path class="st9" d="M471.4,309.5C556.3,354,608.8,397,600.1,419.7c-12.8,33.1-151.6,10.4-310-50.8
		C131.7,307.7,13.7,231.2,26.5,198.1c8.8-22.7,76.6-19.2,169.3,4.9c-2.5,3.5-5,7.1-7.2,10.8c-64-14.2-109.1-14.6-115.6,2.2
		c-10.7,27.8,88.2,91.8,220.9,143.1c132.7,51.3,249,70.3,259.8,42.6c6.5-16.8-27.1-46.9-84.1-79.4
		C470.3,318.1,471,313.8,471.4,309.5z"/>
	<path class="st10" d="M599.5,420.9c-15.7,31.3-153,8.4-309.4-52c-4.8-1.8-9.5-3.7-14.1-5.5c-21.4-12.1-40.5-24.2-56.5-35.8
		c23.1,10.8,48,21.5,74.4,31.6c132.7,51.3,249,70.3,259.8,42.6c2.9-7.5-2.3-17.7-14-29.6C566.4,389.6,587.1,406.4,599.5,420.9z"/>
	<path class="st11" d="M470.9,314c75,40.3,120.7,78.7,112.8,99.3c-12.1,31.2-142.9,9.8-292.2-47.9
		c-149.3-57.7-260.6-129.8-248.5-161c8-20.6,67.7-18.3,150.2,2.3c-2.3,3.4-4.6,6.9-6.7,10.6c-55.4-11.4-94-11-99.8,4.1
		c-10.1,26.2,83.1,86.6,208.3,134.9c125.1,48.3,234.8,66.3,244.9,40.1c5.8-15-22.4-41.3-71.1-70.1
		C469.6,322.2,470.3,318.1,470.9,314z"/>
	<path class="st12" d="M584.3,405.6c0.5,2.8,0.3,5.4-0.6,7.8c-12.1,31.2-142.9,9.8-292.2-47.9c-12.9-5-25.5-10.1-37.7-15.2
		c-18.3-11.2-34.2-22.2-47.4-32.7c26.7,13.2,56.6,26.4,88.7,38.7c125.1,48.3,234.8,66.3,244.9,40.1c3.9-10-7.4-25.1-29.9-42.6
		C540.9,371.8,566.4,389.6,584.3,405.6z"/>
	<path class="st9" d="M469.4,322.9c55.8,32,88.6,61.5,82.2,78c-10.6,27.5-126,8.6-257.6-42.2C162.4,307.9,64.3,244.4,74.9,216.8
		c6.4-16.5,50.5-16.3,113.3-2.5c-2,3.3-3.9,6.8-5.7,10.3c-38.6-6.2-64.6-4.4-69,7.1c-8.9,23.1,73.3,76.3,183.6,118.9
		c110.3,42.6,207,58.4,215.9,35.4c4.4-11.4-13.6-30.3-46.3-51.6C467.7,330.6,468.6,326.8,469.4,322.9z"/>
	<path class="st10" d="M535.7,369.5c13,12.7,18.9,23.5,15.9,31.4c-10.6,27.5-126,8.6-257.6-42.2c-27.2-10.5-52.9-21.5-76.6-32.7
		c-13.2-9.7-24.2-18.9-32.6-27.5c30.7,17.4,69.3,35.6,112.2,52.1c110.3,42.6,207,58.4,215.9,35.4c4.4-11.4-13.6-30.3-46.3-51.6
		c0.3-1.2,0.6-2.3,0.9-3.5C492.9,343.7,515.9,356.8,535.7,369.5z"/>
	<path class="st13" d="M467.6,330.8c39.7,24.6,62.1,46.7,57.1,59.8c-9.4,24.4-111.8,7.7-228.5-37.5
		C179.4,308,92.4,251.6,101.8,227.2c5-13,36.5-14.3,82.4-5.9c-1.8,3.4-3.5,6.9-5.1,10.5c-24.1-2.2-39.9,0.4-43.1,8.6
		c-7.9,20.5,65,67.7,162.9,105.5c97.9,37.8,183.6,51.9,191.5,31.4c3.2-8.2-6.7-20.8-26.1-35.4C465.6,338.3,466.7,334.5,467.6,330.8z
		"/>
	<path class="st14" d="M468.8,331.5c39,24.4,60.9,46.2,55.9,59.1c-9.4,24.4-111.8,7.7-228.5-37.5c-38.2-14.8-73.2-30.7-102.7-46.4
		c-9.6-8.6-16.9-16.7-21.6-24c29.5,20.1,74.7,43,127,63.2c97.9,37.8,183.6,51.9,191.5,31.4c3.2-8.2-6.7-20.8-26.1-35.4
		c1.2-3.7,2.3-7.4,3.2-11.1L468.8,331.5z"/>
	<path class="st11" d="M465.8,337.5c27.1,18.5,41.6,34.7,37.7,44.9c-8.5,22-100.5,6.9-205.6-33.7c-105-40.6-183.3-91.3-174.8-113.2
		c3.9-10.1,25.6-12.4,58-7.9c-1.7,3.6-3.3,7.2-4.7,10.9l-0.2,0.4c-12.4,0.4-20.3,3.1-22.3,8.4c-7.1,18.4,58.5,60.9,146.5,94.9
		c88,34,165.2,46.6,172.3,28.2c2.1-5.3-2-12.7-10.9-21.2l0.2-0.4C463.4,345,464.7,341.3,465.8,337.5z"/>
	<path class="st15" d="M465.8,337.5c27.1,18.5,41.6,34.7,37.7,44.9c-8.5,22-100.5,6.9-205.6-33.7c-46.8-18.1-88.3-38.2-119.1-56.8
		c-6.9-8.1-11.2-15.5-12.5-21.9c22.6,20.9,73,48.6,134.1,72.2c88,34,165.2,46.6,172.3,28.2c2.1-5.3-2-12.7-10.9-21.2l0.2-0.4
		C463.4,345,464.7,341.3,465.8,337.5z"/>
	<path class="st1" d="M169.9,249.8c1.4-5.1,3-10.1,5-15.1c6.3-16.2,15-30.7,25.6-43.3l3.6,1.4c-11.5,13.1-21,28.5-27.6,45.7
		c-1.6,4-2.9,8.1-4.1,12.2L169.9,249.8z"/>
</g>
</svg>
