<?xml version="1.0" encoding="utf-8"?>
<!-- Generator: Adobe Illustrator 26.4.1, SVG Export Plug-In . SVG Version: 6.00 Build 0)  -->
<svg version="1.1" id="Publicdomainvectors.org" xmlns="http://www.w3.org/2000/svg" xmlns:xlink="http://www.w3.org/1999/xlink"
	 x="0px" y="0px" viewBox="0 0 621.5 583.5" style="enable-background:new 0 0 621.5 583.5;" xml:space="preserve">
<style type="text/css">
	.st0{fill-rule:evenodd;clip-rule:evenodd;fill:#E9BBD7;}
	.st1{fill-rule:evenodd;clip-rule:evenodd;fill:#BC5AA3;}
	.st2{fill-rule:evenodd;clip-rule:evenodd;fill:#C97AB2;}
	.st3{fill-rule:evenodd;clip-rule:evenodd;fill:#8A469B;}
	.st4{fill-rule:evenodd;clip-rule:evenodd;fill:#C773AF;}
	.st5{fill-rule:evenodd;clip-rule:evenodd;fill:#D691BF;}
	.st6{fill-rule:evenodd;clip-rule:evenodd;fill:#AE4E9D;}
	.st7{fill-rule:evenodd;clip-rule:evenodd;fill:#7E3D97;}
	.st8{fill-rule:evenodd;clip-rule:evenodd;fill:#824198;}
	.st9{fill-rule:evenodd;clip-rule:evenodd;fill:#5A286F;}
	.st10{fill-rule:evenodd;clip-rule:evenodd;fill:#6B2C8B;}
	.st11{fill-rule:evenodd;clip-rule:evenodd;fill:#511E59;}
	.st12{fill-rule:evenodd;clip-rule:evenodd;fill:#622B7C;}
	.st13{fill-rule:evenodd;clip-rule:evenodd;fill:#43164B;}
	.st14{fill-rule:evenodd;clip-rule:evenodd;fill:#5C2669;}
</style>
<g>
	<path class="st0" d="M477.1,305.5c90.8,47.6,147.1,93.7,137.8,117.9c-13.7,35.5-162.3,11.1-331.9-54.4
		C113.4,303.5-10.8,216.1,0.7,186.2c11.5-29.9,87-19.6,186.2,6.2c-2.7,3.7-5.3,7.6-7.7,11.6c-68.5-15.2-119.5-22.4-128.8,1.5
		c-9.2,23.8,94.4,98.3,236.6,153.2c142.1,54.9,266.6,75.3,278.1,45.6c6.9-18-29.1-50.2-90.1-85C476,314.7,476.7,310.1,477.1,305.5z"
		/>
	<path class="st0" d="M377.2,136.9c84.4,32.6,126.4,127.5,93.8,211.9c-32.6,84.4-127.5,126.4-211.9,93.8
		c-84.4-32.6-126.4-127.5-93.8-211.9C197.9,146.2,292.8,104.2,377.2,136.9z"/>
	<path class="st1" d="M378.8,140.9c84.4,32.6,126.4,127.5,93.8,211.9c-32.6,84.4-127.5,126.4-211.9,93.8
		c-84.4-32.6-126.4-127.5-93.8-211.9C199.5,150.3,294.4,108.3,378.8,140.9z"/>
	<path class="st2" d="M328.5,152.1c47.4,11.7,74.4,50.9,60.2,87.6c-14.2,36.7-64.1,57-111.6,45.4c-47.4-11.7-74.4-50.9-60.2-87.6
		C231.1,160.8,281.1,140.5,328.5,152.1z"/>
	<path class="st3" d="M438.1,407.1c-28.4,29.7-67.2,47.6-108.1,50.2c-13.2-41.7-52.1-81.3-106.2-102.2
		c-20.4-7.9-41.1-12.3-60.9-13.7c-4.3-14-6.7-28.5-7.1-43.4L438.1,407.1z"/>
	<path class="st4" d="M460.8,210.4c3.6,6,6.7,12.3,9.5,18.7c-58.8-8.2-147.5-32.3-246.3-68.3c9.6-6.9,19.8-12.7,30.5-17.3
		C335.8,174.7,410,198.4,460.8,210.4L460.8,210.4z M445.8,398.5c-3.9,4.7-8,9.1-12.4,13.3c-59.8-5.8-159.5-32.3-271.4-73.6
		c-2.9-10.4-4.9-21.1-5.7-32c14.2,5.8,28.8,11.6,43.8,17.4C305.4,364.3,399,392.3,445.8,398.5L445.8,398.5z M474.6,347.2
		c-69.6-8.1-169.4-49.8-267.3-116.1c-9.9-6.7-19.6-13.5-28.9-20.4c-4.4,7.5-8.3,15.5-11.6,24c-0.1,0.3-0.2,0.5-0.3,0.8
		c130.3,81.2,244.8,119.9,306.1,117.2C473.4,350.8,474,349,474.6,347.2z"/>
	<path class="st5" d="M392,213.2c-44.3-11.1-95.7-26.7-150.7-46.2c9.9-7.1,21.9-12.4,34.8-15.3c38.2,14.3,74.4,26.8,106.8,37
		C387.9,196.3,391,204.6,392,213.2L392,213.2z M303.8,288.4c-8.8,0-17.8-1.1-26.7-3.3c-30-7.4-51.8-25.8-60.2-47.6
		C246.1,256.8,275.3,273.8,303.8,288.4z"/>
	<path class="st6" d="M374.9,382.7l63.2,24.4c-1.5,1.6-3.1,3.2-4.7,4.7c-42.6-4.1-105.5-18.8-178.6-41.8c-9.6-5.6-20-10.7-31-14.9
		c-16.8-6.5-33.7-10.7-50.2-12.7c-3.9-1.4-7.7-2.8-11.6-4.3c-2.9-10.4-4.9-21.1-5.7-32c14.2,5.8,28.8,11.6,43.8,17.4
		C265.7,349,326.8,369.4,374.9,382.7z"/>
	<path class="st6" d="M430.8,414.2c-24.6,22.6-55.5,37.2-88.5,41.8c-12.8-4-25.8-8.6-38.9-13.7c-49.3-19-92.5-42.2-125.1-65.8
		c-2.8-4.8-5.3-9.6-7.6-14.6c3.9,1.6,7.8,3.1,11.8,4.7C273.2,401.6,361.5,417.3,430.8,414.2L430.8,414.2z M467.9,363.8
		c-58.5-7.7-127.8-25.7-199.7-53.5c-39.2-15.1-75.9-31.9-109-49.5c-0.8,3.7-1.4,7.5-1.9,11.2c52.4,29.2,115.2,58.6,184.1,85.2
		c36.9,14.2,73,26.7,107.6,37.3C456.3,385.2,462.6,374.9,467.9,363.8L467.9,363.8z M483.5,286.8c-41.5-10.5-89-25.7-138.5-44.8
		c-53.2-20.5-101.5-42.9-140.9-64.4c-8.4,8.4-16,17.8-22.6,28.1c52.9,36.1,124,73,204.8,104.2c30.8,11.9,61.1,22.2,90.4,31
		C482.1,322.9,484.3,304.7,483.5,286.8z"/>
	<path class="st1" d="M380.1,255c-11.6,15.3-30.3,26.1-51.7,30.8c-42.4-18.9-81.1-39-114.5-59.4c-1.6-9.5-0.7-19.3,3-29
		c1.4-3.6,3.1-7,5.2-10.3c35.7,18.5,77.5,37.3,122.9,54.8C356.8,246.6,368.5,250.9,380.1,255z"/>
	<path class="st7" d="M430.8,414.2c-24.6,22.6-55.5,37.2-88.5,41.8c-4.8-1.5-9.6-3.1-14.4-4.8c-6.8-17.9-18.2-35.3-33.6-50.8
		C344.1,411.5,390.7,416,430.8,414.2z"/>
	<path class="st8" d="M482.8,310.8c90.8,47.6,147.1,93.7,137.8,117.9c-13.7,35.5-162.3,11.1-331.9-54.4C119,308.8-7.3,227,6.4,191.5
		c9.4-24.3,82-20.5,181.3,5.3c-2.7,3.7-5.3,7.6-7.7,11.6c-68.5-15.2-116.8-15.6-123.8,2.4c-11.5,29.7,94.4,98.3,236.6,153.2
		c142.1,54.9,266.6,75.3,278.1,45.6c6.9-18-29.1-50.2-90.1-85C481.6,319.9,482.3,315.4,482.8,310.8z"/>
	<path class="st9" d="M619.9,430c-16.9,33.5-163.8,9-331.3-55.7c-5.1-2-10.1-3.9-15.1-5.9c-23-13-43.3-25.9-60.5-38.3
		c24.7,11.6,51.4,23,79.6,33.9c142.1,54.9,266.6,75.3,278.1,45.6c3.1-8.1-2.4-19-15-31.7C584.5,396.6,606.7,414.5,619.9,430z"/>
	<path class="st10" d="M482.2,315.6c80.3,43.2,129.3,84.3,120.7,106.3c-12.9,33.4-153,10.5-312.9-51.3
		C130.2,308.9,11,231.7,24,198.3c8.5-22.1,72.4-19.6,160.9,2.4c-2.5,3.7-4.9,7.4-7.1,11.3c-59.4-12.2-100.6-11.7-106.8,4.3
		c-10.8,28,89,92.7,223,144.4c134,51.8,251.4,71,262.2,43c6.2-16.1-24-44.2-76.2-75C480.8,324.4,481.6,320,482.2,315.6z"/>
	<path class="st11" d="M603.6,413.6c0.5,3,0.3,5.8-0.7,8.3c-12.9,33.4-153,10.5-312.9-51.3c-13.8-5.3-27.3-10.8-40.4-16.3
		c-19.6-12-36.7-23.8-50.7-35c28.6,14.1,60.6,28.2,94.9,41.5c134,51.8,251.4,71,262.2,43c4.1-10.7-8-26.9-32-45.6
		C557.2,377.5,584.5,396.5,603.6,413.6z"/>
	<path class="st8" d="M480.6,325.1c59.7,34.2,94.8,65.8,88,83.5c-11.4,29.5-134.9,9.2-275.8-45.2C151.9,309,46.9,241,58.3,211.5
		c6.8-17.7,54.1-17.5,121.3-2.7c-2.2,3.6-4.2,7.3-6.1,11c-41.3-6.7-69.1-4.7-73.9,7.6c-9.5,24.7,78.5,81.7,196.6,127.3
		c118.1,45.6,221.6,62.6,231.1,37.9c4.7-12.3-14.5-32.5-49.6-55.3C478.8,333.3,479.8,329.2,480.6,325.1z"/>
	<path class="st9" d="M551.6,375c14,13.6,20.3,25.2,17,33.6c-11.4,29.5-134.9,9.2-275.8-45.2c-29.1-11.2-56.7-23.1-82-35
		C196.7,318.1,185,308.2,176,299c32.9,18.6,74.2,38.1,120.2,55.8c118.1,45.6,221.6,62.6,231.1,37.9c4.7-12.3-14.5-32.5-49.6-55.3
		c0.3-1.2,0.7-2.5,1-3.7C505.8,347.4,530.4,361.4,551.6,375z"/>
	<path class="st12" d="M478.7,333.6c42.5,26.4,66.5,50,61.1,64c-10.1,26.2-119.7,8.2-244.7-40.1C170.1,309.1,76.9,248.8,87,222.6
		c5.4-13.9,39.1-15.3,88.3-6.3c-1.9,3.6-3.8,7.4-5.5,11.2c-25.8-2.4-42.7,0.4-46.1,9.2c-8.5,21.9,69.6,72.5,174.4,113
		c104.8,40.5,196.6,55.5,205.1,33.6c3.4-8.8-7.2-22.3-27.9-37.9C476.5,341.5,477.7,337.6,478.7,333.6z"/>
	<path class="st13" d="M479.9,334.3c41.8,26.1,65.2,49.4,59.9,63.2c-10.1,26.2-119.7,8.2-244.7-40.1c-40.9-15.8-78.4-32.9-110-49.6
		c-10.3-9.2-18.1-17.9-23.1-25.7c31.6,21.5,80,46,136,67.7c104.8,40.5,196.6,55.5,205.1,33.6c3.4-8.8-7.2-22.3-27.9-37.9
		c1.3-3.9,2.5-7.9,3.5-11.8L479.9,334.3z"/>
	<path class="st10" d="M476.7,340.7c29,19.8,44.5,37.2,40.3,48c-9.1,23.5-107.6,7.4-220.1-36.1C184.5,309.2,100.7,255,109.8,231.4
		c4.2-10.8,27.4-13.2,62.1-8.5c-1.8,3.8-3.5,7.7-5.1,11.7l-0.2,0.5c-13.2,0.4-21.7,3.3-23.9,9c-7.6,19.7,62.6,65.2,156.9,101.6
		c94.2,36.4,176.8,49.9,184.4,30.2c2.2-5.7-2.1-13.6-11.7-22.8l0.2-0.5C474.2,348.8,475.5,344.8,476.7,340.7z"/>
	<path class="st14" d="M476.7,340.7c29,19.8,44.5,37.2,40.3,48c-9.1,23.5-107.6,7.4-220.1-36.1c-50.1-19.4-94.5-40.9-127.6-60.8
		c-7.4-8.7-12-16.6-13.4-23.4c24.2,22.4,78.1,52,143.6,77.3c94.2,36.4,176.8,49.9,184.4,30.2c2.2-5.7-2.1-13.6-11.7-22.8l0.2-0.5
		C474.2,348.8,475.5,344.8,476.7,340.7z"/>
	<path class="st0" d="M160,246.8c1.5-5.4,3.2-10.8,5.3-16.1c6.7-17.4,16-32.9,27.4-46.4l3.8,1.5c-12.3,14.1-22.4,30.5-29.6,49
		c-1.7,4.3-3.1,8.7-4.4,13.1L160,246.8z"/>
</g>
</svg>
