<?xml version="1.0" encoding="utf-8"?>
<!-- Generator: Adobe Illustrator 26.5.0, SVG Export Plug-In . SVG Version: 6.00 Build 0)  -->
<svg version="1.1" id="Publicdomainvectors.org" xmlns="http://www.w3.org/2000/svg" xmlns:xlink="http://www.w3.org/1999/xlink"
	 x="0px" y="0px" viewBox="0 0 680.3 406" style="enable-background:new 0 0 680.3 406;" xml:space="preserve">
<style type="text/css">
	.st0{fill-rule:evenodd;clip-rule:evenodd;}
	.st1{fill-rule:evenodd;clip-rule:evenodd;fill:#D691BF;}
	.st2{fill-rule:evenodd;clip-rule:evenodd;fill:#E9BBD7;}
	.st3{fill-rule:evenodd;clip-rule:evenodd;fill:#BC5AA3;}
	.st4{fill-rule:evenodd;clip-rule:evenodd;fill:#C97AB2;}
	.st5{fill-rule:evenodd;clip-rule:evenodd;fill:#8A469B;}
	.st6{fill-rule:evenodd;clip-rule:evenodd;fill:#C773AF;}
	.st7{fill-rule:evenodd;clip-rule:evenodd;fill:#AE4E9D;}
	.st8{fill-rule:evenodd;clip-rule:evenodd;fill:#7E3D97;}
	.st9{fill-rule:evenodd;clip-rule:evenodd;fill:#824198;}
	.st10{fill-rule:evenodd;clip-rule:evenodd;fill:#5A286F;}
	.st11{fill-rule:evenodd;clip-rule:evenodd;fill:#6B2C8B;}
	.st12{fill-rule:evenodd;clip-rule:evenodd;fill:#511E59;}
	.st13{fill-rule:evenodd;clip-rule:evenodd;fill:#622B7C;}
	.st14{fill-rule:evenodd;clip-rule:evenodd;fill:#43164B;}
	.st15{fill-rule:evenodd;clip-rule:evenodd;fill:#5C2669;}
</style>
<g>
	
		<image style="overflow:visible;" width="702" height="412" xlink:href="817521345974F4F1.png"  transform="matrix(1 0 0 1 -12.2032 -4.9723)">
	</image>
</g>
<path class="st0" d="M623.7,292.5c-22.5-21.8-61.4-47.8-111.4-74.4c0.1-1.3,0.2-2.6,0.3-3.8c0,0,0-0.1,0-0.1
	c0.1-1.2,0.1-2.4,0.2-3.6c0-0.3,0-0.6,0-0.9c0.1-3.3,0.2-6.5,0.1-9.7c0-0.9,0-1.7-0.1-2.6c0-0.3,0-0.7,0-1c0,0,0,0,0,0
	c-0.8-19.3-5.1-38.3-12.4-55.9c-16-41.7-49-76.7-93.9-94c-70.4-27.3-148.1-2.6-190.8,55.4C116.8,76.1,41.5,65.9,30.1,95.7
	c-2.3,6,0.9,14.3,8.7,24.3c14.8,27.1,69.6,65.9,146.9,105.3c2.1,12.7,5.6,25.1,10.5,36.9c1.2,3.2,2.5,6.3,3.9,9.3c0,0,0,0-0.1,0
	c2.3,5,4.8,9.8,7.6,14.6c0,0,0,0,0.1,0c18.1,30.9,46.3,56.2,82.3,70.1c41.8,16.1,86.2,14,124.3-2.6c0.1-0.1,0.2-0.1,0.4-0.2
	c0.9-0.4,1.9-0.8,2.8-1.3c0.3-0.1,0.5-0.2,0.8-0.4c0.8-0.4,1.6-0.8,2.4-1.2c0.4-0.2,0.7-0.4,1.1-0.5c0.7-0.4,1.4-0.7,2.2-1.1
	c0.4-0.2,0.9-0.5,1.3-0.7c0.7-0.3,1.3-0.7,2-1c0.5-0.3,1-0.5,1.5-0.8c0.6-0.3,1.2-0.7,1.8-1c0.5-0.3,1.1-0.6,1.6-0.9
	c0.6-0.3,1.1-0.7,1.7-1c0.6-0.3,1.1-0.7,1.7-1c0.5-0.3,1.1-0.7,1.6-1c0.6-0.4,1.1-0.7,1.7-1.1c0.5-0.3,1.1-0.7,1.6-1.1
	c0.5-0.4,1.1-0.7,1.6-1.1c0.5-0.4,1.1-0.8,1.6-1.1c0.5-0.3,1-0.7,1.5-1.1c0.6-0.4,1.1-0.8,1.7-1.3c0.4-0.3,0.9-0.7,1.3-1
	c0.6-0.5,1.2-0.9,1.9-1.4c0.4-0.3,0.7-0.6,1.1-0.8c0.7-0.5,1.4-1.1,2.1-1.7c0.3-0.2,0.5-0.4,0.7-0.6c0.1-0.1,0.2-0.1,0.3-0.2
	c23,6.3,44.6,11.5,64.6,15.5c0.3,0.1,0.6,0.1,0.9,0.2c1.6,0.3,3.2,0.6,4.7,0.9c0.7,0.1,1.3,0.3,2,0.4c1.2,0.2,2.4,0.4,3.5,0.7
	c1,0.2,2,0.4,3,0.5c0.8,0.1,1.6,0.3,2.4,0.4c1.3,0.2,2.6,0.5,3.9,0.7c0.5,0.1,0.9,0.2,1.4,0.2c1.6,0.3,3.2,0.5,4.7,0.8
	c0.2,0,0.3,0.1,0.5,0.1c58.2,9.2,97.4,6.2,104.1-11.2C654.3,327,644.5,311.1,623.7,292.5z M510.4,232.3
	C510.4,232.3,510.4,232.3,510.4,232.3c-0.1,0.8-0.3,1.6-0.4,2.3c0,0,0,0-0.1,0c0.1-0.3,0.1-0.7,0.2-1
	C510.2,233.2,510.3,232.8,510.4,232.3z M185.1,177.7c-10.5-9.7-15.3-18.1-13-24c2-5.3,9.4-8.1,20.9-8.9c-1.4,3.8-2.5,7.7-3.6,11.6
	l0,0C187.4,163.4,186,170.5,185.1,177.7z M501.8,262.8c9.5,9.1,13.7,16.9,11.5,22.6c-2.4,6.1-12.1,9.1-27.1,9.1c-0.3,0-0.6,0-0.9,0
	c0.3-0.4,0.5-0.8,0.7-1.1c0.1-0.1,0.1-0.2,0.2-0.3c4-6.1,7.6-12.5,10.8-19.2c0.1-0.2,0.2-0.4,0.3-0.5c0,0,0,0,0,0
	C498.9,269.9,500.4,266.4,501.8,262.8z"/>
<g>
	<path class="st1" d="M644.3,332.9c-9.6,24.8-84.7,20.4-186.8-6.7c-2.6-0.7-5.2-1.4-7.9-2.1c-42.3-11.6-88.9-26.9-137.2-45.5
		C142.8,213,18.6,125.6,30.1,95.7c11.5-29.9,87-19.6,186.2,6.2c-2.7,3.7-5.3,7.6-7.7,11.6C140.1,98.3,89.1,91.1,79.8,115
		c-9.2,23.8,94.4,98.3,236.6,153.2c142.1,54.9,266.6,75.3,278.1,45.6c6.7-17.4-26.7-48.1-84.1-81.5c0.9-4.7,1.5-9.5,1.9-14.2
		C599.7,264.6,653.4,309.3,644.3,332.9z"/>
	<path class="st2" d="M406.6,46.4C491,79,533,173.9,500.4,258.3s-127.5,126.4-211.9,93.8s-126.4-127.5-93.8-211.9
		C227.3,55.7,322.2,13.7,406.6,46.4z"/>
	<path class="st3" d="M408.2,50.4C492.6,83,534.6,177.9,502,262.3s-127.5,126.4-211.9,93.8s-126.4-127.5-93.8-211.9
		S323.8,17.8,408.2,50.4z"/>
	<path class="st4" d="M357.9,61.6c47.4,11.7,74.4,50.9,60.2,87.6c-14.2,36.7-64.1,57-111.6,45.4c-47.4-11.7-74.4-50.9-60.2-87.6
		C260.5,70.3,310.5,50,357.9,61.6z"/>
	<path class="st5" d="M467.5,316.6c-28.4,29.7-67.2,47.6-108.1,50.2c-13.2-41.7-52.1-81.3-106.2-102.2
		c-20.4-7.9-41.1-12.3-60.9-13.7c-4.3-14-6.7-28.5-7.1-43.4L467.5,316.6z"/>
	<path class="st6" d="M490.2,119.9c3.6,6,6.7,12.3,9.5,18.7c-58.8-8.2-147.5-32.3-246.3-68.3c9.6-6.9,19.8-12.7,30.5-17.3
		C365.2,84.2,439.4,107.9,490.2,119.9L490.2,119.9z M475.2,308c-3.9,4.7-8,9.1-12.4,13.3c-59.8-5.8-159.5-32.3-271.4-73.6
		c-2.9-10.4-4.9-21.1-5.7-32c14.2,5.8,28.8,11.6,43.8,17.4C334.8,273.8,428.4,301.8,475.2,308L475.2,308z M504,256.7
		c-69.6-8.1-169.4-49.8-267.3-116.1c-9.9-6.7-19.6-13.5-28.9-20.4c-4.4,7.5-8.3,15.5-11.6,24c-0.1,0.3-0.2,0.5-0.3,0.8
		C326.2,226.2,440.7,264.9,502,262.2C502.8,260.3,503.4,258.5,504,256.7z"/>
	<path class="st1" d="M421.4,122.7c-44.3-11.1-95.7-26.7-150.7-46.2c9.9-7.1,21.9-12.4,34.8-15.3c38.2,14.3,74.4,26.8,106.8,37
		C417.3,105.8,420.4,114.1,421.4,122.7L421.4,122.7z M333.2,197.9c-8.8,0-17.8-1.1-26.7-3.3c-30-7.4-51.8-25.8-60.2-47.6
		C275.5,166.3,304.7,183.3,333.2,197.9z"/>
	<path class="st7" d="M404.3,292.2l63.2,24.4c-1.5,1.6-3.1,3.2-4.7,4.7c-42.6-4.1-105.5-18.8-178.6-41.8c-9.6-5.6-20-10.7-31-14.9
		c-16.8-6.5-33.7-10.7-50.2-12.7c-3.9-1.4-7.7-2.8-11.6-4.3c-2.9-10.4-4.9-21.1-5.7-32c14.2,5.8,28.8,11.6,43.8,17.4
		C295.1,258.5,356.2,278.9,404.3,292.2z"/>
	<path class="st7" d="M297.6,219.8c-39.2-15.1-75.9-31.9-109-49.5c-0.8,3.7-1.4,7.5-1.9,11.2c52.4,29.2,115.2,58.6,184.1,85.2
		c36.9,14.2,73,26.7,107.6,37.3c7.3-9.3,13.6-19.6,18.9-30.7C438.8,265.6,369.5,247.6,297.6,219.8z M449.5,324.1
		c-67.6,1.1-151.5-14.7-237.7-47.9c-4-1.6-7.9-3.1-11.8-4.7c2.3,5,4.8,9.8,7.6,14.6c32.6,23.6,75.8,46.8,125.1,65.8
		c13.1,5.1,26.1,9.7,38.9,13.7c31.8-4.4,61.6-18.1,85.8-39.3c0.9-0.8,1.8-1.6,2.7-2.5C456.7,323.9,453.1,324,449.5,324.1z"/>
	<path class="st7" d="M512.4,218.2c-0.4,4.7-1.1,9.5-1.9,14.2c-1.1,6.1-2.5,12.1-4.3,18.1c-29.3-8.8-59.6-19.1-90.4-31
		c-80.8-31.2-151.9-68.1-204.8-104.2c6.6-10.3,14.2-19.7,22.6-28.1c39.4,21.5,87.7,43.9,140.9,64.4c49.5,19.1,97,34.3,138.5,44.8
		C513.2,203.6,513,210.9,512.4,218.2z"/>
	<path class="st3" d="M409.5,164.5c-11.6,15.3-30.3,26.1-51.7,30.8c-42.4-18.9-81.1-39-114.5-59.4c-1.6-9.5-0.7-19.3,3-29
		c1.4-3.6,3.1-7,5.2-10.3c35.7,18.5,77.5,37.3,122.9,54.8C386.2,156.1,397.9,160.4,409.5,164.5z"/>
	<path class="st8" d="M460.2,323.7c-24.6,22.6-55.5,37.2-88.5,41.8c-4.8-1.5-9.6-3.1-14.4-4.8c-6.8-17.9-18.2-35.3-33.6-50.8
		C373.5,321,420.1,325.5,460.2,323.7z"/>
	<path class="st9" d="M512.2,220.3C603,267.9,659.3,314,650,338.2c-13.7,35.5-162.3,11.1-331.9-54.4
		C148.4,218.3,22.1,136.5,35.8,101c9.4-24.3,82-20.5,181.3,5.3c-2.7,3.7-5.3,7.6-7.7,11.6c-68.5-15.2-116.8-15.6-123.8,2.4
		C74.1,150,180,218.6,322.2,273.5c142.1,54.9,266.6,75.3,278.1,45.6c6.9-18-29.1-50.2-90.1-85C511,229.4,511.7,224.9,512.2,220.3z"
		/>
	<path class="st10" d="M649.3,339.5c-16.9,33.5-163.8,9-331.3-55.7c-5.1-2-10.1-3.9-15.1-5.9c-23-13-43.3-25.9-60.5-38.3
		c24.7,11.6,51.4,23,79.6,33.9c142.1,54.9,266.6,75.3,278.1,45.6c3.1-8.1-2.4-19-15-31.7C613.9,306.1,636.1,324,649.3,339.5z"/>
	<path class="st11" d="M511.6,225.1c80.3,43.2,129.3,84.3,120.7,106.3c-12.9,33.4-153,10.5-312.9-51.3
		c-159.8-61.7-279-138.9-266-172.3c8.5-22.1,72.4-19.6,160.9,2.4c-2.5,3.7-4.9,7.4-7.1,11.3c-59.4-12.2-100.6-11.7-106.8,4.3
		c-10.8,28,89,92.7,223,144.4c134,51.8,251.4,71,262.2,43c6.2-16.1-24-44.2-76.2-75C510.2,233.9,511,229.5,511.6,225.1z"/>
	<path class="st12" d="M633,323.1c0.5,3,0.3,5.8-0.7,8.3c-12.9,33.4-153,10.5-312.9-51.3c-13.8-5.3-27.3-10.8-40.4-16.3
		c-19.6-12-36.7-23.8-50.7-35c28.6,14.1,60.6,28.2,94.9,41.5c134,51.8,251.4,71,262.2,43c4.1-10.7-8-26.9-32-45.6
		C586.6,287,613.9,306,633,323.1z"/>
	<path class="st9" d="M510,234.6c59.7,34.2,94.8,65.8,88,83.5c-11.4,29.5-134.9,9.2-275.8-45.2S76.3,150.5,87.7,121
		c6.8-17.7,54.1-17.5,121.3-2.7c-2.2,3.6-4.2,7.3-6.1,11c-41.3-6.7-69.1-4.7-73.9,7.6c-9.5,24.7,78.5,81.7,196.6,127.3
		s221.6,62.6,231.1,37.9c4.7-12.3-14.5-32.5-49.6-55.3C508.2,242.8,509.2,238.7,510,234.6z"/>
	<path class="st10" d="M581,284.5c14,13.6,20.3,25.2,17,33.6c-11.4,29.5-134.9,9.2-275.8-45.2c-29.1-11.2-56.7-23.1-82-35
		c-14.1-10.3-25.8-20.2-34.8-29.4c32.9,18.6,74.2,38.1,120.2,55.8c118.1,45.6,221.6,62.6,231.1,37.9c4.7-12.3-14.5-32.5-49.6-55.3
		c0.3-1.2,0.7-2.5,1-3.7C535.2,256.9,559.8,270.9,581,284.5z"/>
	<path class="st13" d="M508.1,243.1c42.5,26.4,66.5,50,61.1,64c-10.1,26.2-119.7,8.2-244.7-40.1c-125-48.4-218.2-108.7-208.1-134.9
		c5.4-13.9,39.1-15.3,88.3-6.3c-1.9,3.6-3.8,7.4-5.5,11.2c-25.8-2.4-42.7,0.4-46.1,9.2c-8.5,21.9,69.6,72.5,174.4,113
		s196.6,55.5,205.1,33.6c3.4-8.8-7.2-22.3-27.9-37.9C505.9,251,507.1,247.1,508.1,243.1z"/>
	<path class="st14" d="M509.3,243.8c41.8,26.1,65.2,49.4,59.9,63.2c-10.1,26.2-119.7,8.2-244.7-40.1c-40.9-15.8-78.4-32.9-110-49.6
		c-10.3-9.2-18.1-17.9-23.1-25.7c31.6,21.5,80,46,136,67.7c104.8,40.5,196.6,55.5,205.1,33.6c3.4-8.8-7.2-22.3-27.9-37.9
		c1.3-3.9,2.5-7.9,3.5-11.8L509.3,243.8z"/>
	<path class="st11" d="M506.1,250.2c29,19.8,44.5,37.2,40.3,48c-9.1,23.5-107.6,7.4-220.1-36.1c-112.4-43.4-196.2-97.6-187.1-121.2
		c4.2-10.8,27.4-13.2,62.1-8.5c-1.8,3.8-3.5,7.7-5.1,11.7l-0.2,0.5c-13.2,0.4-21.7,3.3-23.9,9c-7.6,19.7,62.6,65.2,156.9,101.6
		c94.2,36.4,176.8,49.9,184.4,30.2c2.2-5.7-2.1-13.6-11.7-22.8l0.2-0.5C503.6,258.3,504.9,254.3,506.1,250.2z"/>
	<path class="st15" d="M506.1,250.2c29,19.8,44.5,37.2,40.3,48c-9.1,23.5-107.6,7.4-220.1-36.1c-50.1-19.4-94.5-40.9-127.6-60.8
		c-7.4-8.7-12-16.6-13.4-23.4c24.2,22.4,78.1,52,143.6,77.3c94.2,36.4,176.8,49.9,184.4,30.2c2.2-5.7-2.1-13.6-11.7-22.8l0.2-0.5
		C503.6,258.3,504.9,254.3,506.1,250.2z"/>
	<path class="st2" d="M189.4,156.3c1.5-5.4,3.2-10.8,5.3-16.1c6.7-17.4,16-32.9,27.4-46.4l3.8,1.5c-12.3,14.1-22.4,30.5-29.6,49
		c-1.7,4.3-3.1,8.7-4.4,13.1L189.4,156.3z"/>
</g>
</svg>
