<?xml version="1.0" encoding="utf-8"?>
<!-- Generator: Adobe Illustrator 26.4.1, SVG Export Plug-In . SVG Version: 6.00 Build 0)  -->
<svg version="1.1" id="Layer_1" xmlns="http://www.w3.org/2000/svg" xmlns:xlink="http://www.w3.org/1999/xlink" x="0px" y="0px"
	 viewBox="0 0 95.7 95.7" style="enable-background:new 0 0 95.7 95.7;" xml:space="preserve">
<style type="text/css">
	.st0{fill:#FFFFFF;}
</style>
<rect width="95.7" height="95.7"/>
<polygon class="st0" points="8.5,10.8 8.9,11 8.6,11.3 8.4,11.7 8.1,11.3 7.7,11.2 8.1,10.9 8.2,10.5 "/>
<polygon class="st0" points="16.1,44.1 16.3,44.4 16,44.5 15.7,44.7 15.6,44.3 15.4,44 15.8,44 16.1,43.8 "/>
<polygon class="st0" points="38.9,16.6 39.5,17.1 38.8,17.3 38.2,17.9 38,17.2 37.4,16.7 38.1,16.4 38.6,15.8 "/>
<polygon class="st0" points="21.8,10.8 22,11.2 21.6,11.1 21.3,11.3 21.3,10.9 21.2,10.6 21.5,10.6 21.9,10.5 "/>
<polygon class="st0" points="7.5,33.6 7.5,33.9 7.2,33.7 6.9,33.7 7.1,33.5 7.1,33.2 7.4,33.4 7.7,33.4 "/>
<polygon class="st0" points="42,3.6 42,3.9 41.7,3.7 41.3,3.6 41.6,3.3 41.7,3 41.9,3.2 42.3,3.3 "/>
<polygon class="st0" points="16.8,13 16.6,13.2 16.5,12.9 16.3,12.7 16.6,12.7 16.8,12.4 16.9,12.7 17.1,12.9 "/>
<polygon class="st0" points="26.6,37.2 26.2,37.4 26.3,37 26.2,36.6 26.6,36.7 26.9,36.6 26.8,37 27,37.3 "/>
<polygon class="st0" points="5.1,21.1 4.8,21 5,20.8 5,20.5 5.2,20.7 5.5,20.8 5.3,21 5.3,21.3 "/>
<polygon class="st0" points="45.3,31.2 45.5,31.6 45.1,31.5 44.8,31.7 44.8,31.3 44.7,31 45,31 45.4,30.9 "/>
<polygon class="st0" points="32.1,48.4 32.1,48.7 31.8,48.5 31.5,48.5 31.7,48.3 31.8,48 32,48.2 32.3,48.2 "/>
<polygon class="st0" points="31,6.7 30.5,6.9 30.7,6.3 30.5,5.8 31,6 31.5,5.8 31.4,6.3 31.5,6.8 "/>
<polygon class="st0" points="26.1,27 26,27.4 25.8,27.1 25.4,27 25.7,26.7 25.8,26.4 26,26.7 26.4,26.7 "/>
<polygon class="st0" points="20.9,25.5 20.6,25.5 20.7,25.3 20.7,25 20.9,25.1 21.2,25.1 21.1,25.3 21.1,25.6 "/>
<polygon class="st0" points="45,19.2 44.7,19 45,18.9 45.2,18.5 45.4,18.9 45.7,19 45.4,19.2 45.2,19.5 "/>
<polygon class="st0" points="47.7,14.5 47.8,14.2 48,14.4 48.3,14.4 48.1,14.6 48.1,14.9 47.8,14.8 47.5,14.7 "/>
<polygon class="st0" points="7.1,44.8 6.8,45 6.8,44.7 6.6,44.3 7,44.4 7.3,44.2 7.3,44.5 7.5,44.9 "/>
<polygon class="st0" points="4.5,40.1 4.3,39.9 4.6,39.8 4.7,39.6 4.8,39.8 5.1,40 4.8,40.1 4.6,40.3 "/>
<polygon class="st0" points="3.2,7 2.9,6.8 3.2,6.6 3.4,6.3 3.5,6.6 3.9,6.8 3.6,7 3.4,7.3 "/>
<polygon class="st0" points="5.9,2.2 6,2 6.2,2.1 6.5,2.2 6.3,2.4 6.2,2.7 6,2.5 5.7,2.5 "/>
<polygon class="st0" points="26.3,18.1 26.1,18.3 26,18 25.8,17.8 26.1,17.8 26.3,17.5 26.4,17.8 26.6,18 "/>
<polygon class="st0" points="22.1,42.4 21.9,42.7 21.8,42.4 21.6,42.2 21.9,42.1 22.1,41.9 22.1,42.2 22.4,42.4 "/>
<polygon class="st0" points="40,39.3 39.8,39.6 39.7,39.3 39.5,39.1 39.8,39 40,38.8 40.1,39.1 40.3,39.3 "/>
<polygon class="st0" points="17.5,2.9 17.3,3.1 17.2,2.8 17,2.6 17.3,2.5 17.5,2.3 17.6,2.6 17.8,2.8 "/>
<circle class="st0" cx="13.6" cy="7.1" r="0.2"/>
<circle class="st0" cx="11.2" cy="18.4" r="0.1"/>
<circle class="st0" cx="8.4" cy="29" r="0.1"/>
<circle class="st0" cx="13.7" cy="30.3" r="0.1"/>
<circle class="st0" cx="31.7" cy="23.3" r="0.2"/>
<circle class="st0" cx="45.9" cy="5.6" r="0.2"/>
<circle class="st0" cx="35.3" cy="0.8" r="0.1"/>
<circle class="st0" cx="29" cy="42.6" r="0.4"/>
<circle class="st0" cx="16.5" cy="35.9" r="0.2"/>
<circle class="st0" cx="24.8" cy="30.6" r="0.2"/>
<circle class="st0" cx="2.3" cy="28" r="0.2"/>
<circle class="st0" cx="2.3" cy="47.8" r="0.1"/>
<circle class="st0" cx="22.7" cy="8.3" r="0.2"/>
<circle class="st0" cx="17.4" cy="16.4" r="0.1"/>
<circle class="st0" cx="11.9" cy="23.6" r="0.1"/>
<circle class="st0" cx="15.6" cy="26.3" r="0.1"/>
<circle class="st0" cx="48.1" cy="17.2" r="0.2"/>
<circle class="st0" cx="41.4" cy="10.2" r="0.1"/>
<circle class="st0" cx="22.2" cy="38.8" r="0.3"/>
<circle class="st0" cx="22" cy="30" r="0.2"/>
<circle class="st0" cx="7.5" cy="21" r="0.2"/>
<circle class="st0" cx="1.4" cy="36.3" r="0.1"/>
<polygon class="st0" points="82.2,7.3 82.1,7.8 81.8,7.4 81.3,7.3 81.7,7 81.8,6.5 82.1,6.9 82.6,7 "/>
<polygon class="st0" points="50.3,19.3 50,19.6 49.9,19.2 49.6,19 50,18.9 50.3,18.6 50.3,19 50.6,19.2 "/>
<polygon class="st0" points="80.6,38.2 80.2,38.9 79.9,38.2 79.2,37.7 79.9,37.4 80.3,36.7 80.7,37.4 81.4,37.8 "/>
<polygon class="st0" points="59.5,9.4 59.2,9.4 59.4,9.1 59.4,8.8 59.6,9 59.9,9 59.8,9.2 59.8,9.5 "/>
<polygon class="st0" points="52.8,47.6 52.4,48.3 52,47.6 51.3,47.2 52,46.8 52.4,46.1 52.8,46.8 53.5,47.2 "/>
<polygon class="st0" points="94,39.6 93.6,39.5 93.8,39.2 93.8,38.9 94.1,39.1 94.5,39.1 94.3,39.4 94.3,39.8 "/>
<polygon class="st0" points="81.2,15.8 81,15.7 81.2,15.6 81.4,15.3 81.5,15.6 81.8,15.8 81.5,15.9 81.3,16.1 "/>
<polygon class="st0" points="58.5,28.8 58.3,28.5 58.7,28.5 59,28.3 59,28.7 59.2,29 58.8,29 58.5,29.2 "/>
<polygon class="st0" points="71.6,5.3 71.7,5 71.9,5.2 72.2,5.2 72,5.4 72,5.7 71.8,5.5 71.5,5.5 "/>
<polygon class="st0" points="67,46.5 66.6,46.8 66.7,46.4 66.4,46.1 66.8,46.1 67.1,45.9 67.1,46.2 67.3,46.5 "/>
<polygon class="st0" points="48.2,35.8 47.9,35.8 48,35.5 48,35.2 48.3,35.4 48.6,35.4 48.4,35.6 48.4,35.9 "/>
<polygon class="st0" points="70.1,17.3 69.7,18 69.4,17.3 68.7,16.9 69.4,16.5 69.8,15.8 70.2,16.5 70.8,16.9 "/>
<polygon class="st0" points="68.6,26.9 68.2,26.9 68.5,26.6 68.5,26.2 68.8,26.5 69.1,26.5 68.9,26.8 68.9,27.2 "/>
<polygon class="st0" points="69.4,21.5 69.3,21.2 69.6,21.3 69.9,21.3 69.8,21.5 69.8,21.8 69.6,21.7 69.3,21.8 "/>
<polygon class="st0" points="83.9,46.7 84.2,46.7 84,46.9 84,47.2 83.8,47.1 83.5,47.1 83.6,46.8 83.6,46.5 "/>
<polygon class="st0" points="48.3,10.5 48.1,10.2 48.5,10.2 48.8,10 48.8,10.3 49,10.6 48.7,10.7 48.4,10.9 "/>
<polygon class="st0" points="52.7,7.3 52.9,7 53,7.3 53.3,7.5 53,7.6 52.8,7.8 52.7,7.6 52.5,7.4 "/>
<polygon class="st0" points="85.3,1.5 85.5,1.2 85.7,1.5 86.1,1.6 85.7,1.8 85.6,2.2 85.4,1.9 85.1,1.8 "/>
<polygon class="st0" points="90.4,3.6 90.7,3.6 90.5,3.8 90.5,4.1 90.3,4 90,4 90.1,3.7 90.1,3.4 "/>
<polygon class="st0" points="77.4,25.9 77.2,25.7 77.5,25.6 77.6,25.4 77.7,25.7 78,25.8 77.7,25.9 77.5,26.2 "/>
<polygon class="st0" points="52.7,25 52.5,24.8 52.8,24.7 52.9,24.5 53,24.8 53.3,24.9 53,25 52.8,25.3 "/>
<polygon class="st0" points="58.2,42.4 58,42.2 58.3,42.1 58.4,41.8 58.5,42.1 58.8,42.3 58.5,42.4 58.3,42.6 "/>
<polygon class="st0" points="91.3,15.2 91.1,15 91.4,14.9 91.5,14.6 91.6,14.9 91.9,15.1 91.6,15.2 91.4,15.4 "/>
<polygon class="st0" points="89,86.2 88.6,86.1 89,85.8 89.1,85.3 89.4,85.7 89.8,85.9 89.5,86.2 89.3,86.6 "/>
<polygon class="st0" points="81.4,52.9 81.2,52.6 81.6,52.6 81.9,52.4 81.9,52.7 82.1,53 81.8,53.1 81.5,53.3 "/>
<polygon class="st0" points="75.7,86.2 75.5,85.9 75.9,86 76.3,85.8 76.2,86.2 76.4,86.5 76,86.5 75.7,86.6 "/>
<polygon class="st0" points="90,63.4 90.1,63.1 90.3,63.3 90.6,63.4 90.4,63.6 90.4,63.9 90.1,63.7 89.8,63.7 "/>
<polygon class="st0" points="62,66.1 61.9,65.5 62.5,65.8 63.1,65.7 62.8,66.3 62.9,66.9 62.3,66.6 61.7,66.7 "/>
<polygon class="st0" points="55.5,93.5 55.6,93.1 55.8,93.4 56.2,93.5 55.9,93.7 55.8,94.1 55.6,93.8 55.2,93.8 "/>
<polygon class="st0" points="80.7,84.1 80.9,83.9 81,84.1 81.2,84.3 80.9,84.4 80.7,84.6 80.6,84.3 80.4,84.1 "/>
<polygon class="st0" points="70.9,59.8 71.3,59.7 71.2,60.1 71.3,60.4 71,60.3 70.6,60.5 70.7,60.1 70.6,59.8 "/>
<polygon class="st0" points="92.5,76 92.7,76.1 92.5,76.3 92.5,76.6 92.3,76.4 92,76.3 92.2,76.1 92.2,75.8 "/>
<polygon class="st0" points="52.2,65.8 52,65.5 52.4,65.5 52.7,65.4 52.7,65.7 52.8,66.1 52.5,66 52.1,66.2 "/>
<polygon class="st0" points="65.4,48.6 65.4,48.3 65.7,48.5 66,48.6 65.8,48.8 65.7,49.1 65.5,48.9 65.2,48.9 "/>
<polygon class="st0" points="66.5,90.4 67,90.2 66.8,90.7 67,91.2 66.5,91.1 66,91.3 66.2,90.8 66,90.3 "/>
<polygon class="st0" points="80.7,72.9 80.1,72.4 80.9,72.1 81.4,71.5 81.6,72.3 82.3,72.8 81.5,73 81,73.6 "/>
<polygon class="st0" points="71.4,70.1 71.5,69.7 71.8,70 72.1,70.1 71.8,70.3 71.8,70.7 71.5,70.4 71.2,70.3 "/>
<polygon class="st0" points="52.5,77.8 52.8,78 52.5,78.2 52.3,78.5 52.2,78.2 51.8,78 52.2,77.9 52.3,77.5 "/>
<polygon class="st0" points="90.4,52.2 90.7,52 90.7,52.4 90.9,52.7 90.5,52.7 90.2,52.9 90.2,52.5 90,52.2 "/>
<polygon class="st0" points="93,57 93.2,57.2 93,57.3 92.8,57.5 92.7,57.2 92.5,57 92.7,57 92.9,56.7 "/>
<polygon class="st0" points="94.3,90.1 94.7,90.3 94.3,90.4 94.1,90.8 94,90.4 93.6,90.3 94,90.1 94.1,89.8 "/>
<polygon class="st0" points="91.6,94.8 91.6,95.1 91.3,94.9 91,94.9 91.2,94.7 91.3,94.4 91.5,94.6 91.8,94.6 "/>
<polygon class="st0" points="71.2,79 71.4,78.7 71.5,79 71.7,79.2 71.4,79.3 71.2,79.5 71.2,79.2 70.9,79 "/>
<polygon class="st0" points="75.4,54.6 75.6,54.4 75.7,54.7 75.9,54.9 75.6,55 75.4,55.2 75.4,54.9 75.2,54.7 "/>
<polygon class="st0" points="57.5,57.7 57.7,57.5 57.8,57.8 58,58 57.7,58.1 57.5,58.3 57.5,58 57.2,57.8 "/>
<polygon class="st0" points="80,94.2 80.2,94 80.3,94.3 80.5,94.5 80.2,94.5 80,94.7 80,94.5 79.7,94.3 "/>
<circle class="st0" cx="74.8" cy="88.7" r="0.2"/>
<circle class="st0" cx="80.2" cy="80.7" r="0.1"/>
<circle class="st0" cx="85.6" cy="73.4" r="0.1"/>
<circle class="st0" cx="81.9" cy="70.8" r="0.1"/>
<circle class="st0" cx="65.8" cy="70.6" r="0.2"/>
<circle class="st0" cx="49.4" cy="79.9" r="0.2"/>
<circle class="st0" cx="56.2" cy="86.9" r="0.1"/>
<circle class="st0" cx="81.5" cy="65.5" r="0.2"/>
<circle class="st0" cx="90" cy="76.1" r="0.2"/>
<circle class="st0" cx="96.2" cy="60.8" r="0.1"/>
<polygon class="st0" points="15.3,89.8 15.4,89.3 15.7,89.6 16.2,89.7 15.8,90.1 15.7,90.5 15.4,90.2 14.9,90.1 "/>
<polygon class="st0" points="47.2,77.7 47.5,77.5 47.6,77.8 47.9,78.1 47.5,78.2 47.2,78.4 47.2,78.1 46.9,77.8 "/>
<polygon class="st0" points="16.9,58.9 17.3,58.2 17.6,58.9 18.3,59.3 17.6,59.7 17.2,60.4 16.8,59.6 16.2,59.2 "/>
<polygon class="st0" points="13.5,76.6 13.8,76.4 13.8,76.7 14,77 13.6,77 13.3,77.2 13.3,76.9 13.1,76.6 "/>
<polygon class="st0" points="38,87.7 38.3,87.7 38.1,87.9 38.1,88.2 37.9,88.1 37.6,88.1 37.8,87.8 37.7,87.5 "/>
<polygon class="st0" points="31.6,60.2 32.2,60.1 32,60.7 32.1,61.3 31.5,61.1 30.9,61.2 31.1,60.6 31,60 "/>
<polygon class="st0" points="3.6,57.5 3.9,57.5 3.7,57.8 3.7,58.2 3.4,58 3,57.9 3.2,57.6 3.3,57.3 "/>
<polygon class="st0" points="16.3,81.2 16.5,81.4 16.3,81.5 16.1,81.7 16,81.5 15.8,81.3 16,81.2 16.2,80.9 "/>
<polygon class="st0" points="39,68.3 39.2,68.6 38.8,68.6 38.5,68.7 38.5,68.4 38.3,68 38.7,68.1 39,67.9 "/>
<polygon class="st0" points="25.9,91.8 25.9,92.1 25.6,91.9 25.3,91.9 25.5,91.6 25.5,91.3 25.7,91.5 26,91.5 "/>
<polygon class="st0" points="30.6,50.5 30.9,50.3 30.9,50.7 31.1,51 30.7,51 30.4,51.2 30.4,50.8 30.2,50.5 "/>
<polygon class="st0" points="49.4,61.3 49.6,61.3 49.5,61.5 49.5,61.8 49.3,61.7 49,61.7 49.1,61.4 49.1,61.1 "/>
<polygon class="st0" points="8.1,68 8.4,68.4 7.8,68.4 7.4,68.6 7.4,68.1 7.2,67.7 7.7,67.7 8.2,67.5 "/>
<polygon class="st0" points="27.4,79.8 27.8,79.1 28.2,79.8 28.8,80.2 28.1,80.5 27.7,81.2 27.4,80.5 26.7,80.1 "/>
<polygon class="st0" points="28.9,70.1 29.3,70.2 29.1,70.5 29,70.8 28.7,70.6 28.4,70.6 28.6,70.3 28.6,69.9 "/>
<polygon class="st0" points="18.7,52.4 18.5,52.8 18.3,52.5 18,52.4 18.3,52.1 18.4,51.8 18.6,52.1 19,52.2 "/>
<polygon class="st0" points="13.6,50.4 13.3,50.4 13.5,50.1 13.5,49.8 13.7,50 14,50 13.9,50.2 13.9,50.5 "/>
<polygon class="st0" points="49.2,86.5 49.4,86.8 49,86.9 48.7,87.1 48.7,86.7 48.5,86.4 48.8,86.4 49.1,86.2 "/>
<polygon class="st0" points="44.8,89.8 44.6,90 44.5,89.8 44.2,89.6 44.5,89.5 44.7,89.2 44.8,89.5 45,89.6 "/>
<polygon class="st0" points="12.2,95.5 12,95.9 11.8,95.6 11.5,95.4 11.8,95.2 11.9,94.9 12.1,95.2 12.5,95.3 "/>
<polygon class="st0" points="7.1,93.5 6.8,93.5 7,93.2 7,92.9 7.2,93.1 7.5,93.1 7.4,93.3 7.4,93.6 "/>
<polygon class="st0" points="20.1,71.1 20.3,71.3 20.1,71.4 19.9,71.7 19.8,71.4 19.5,71.2 19.8,71.1 20,70.9 "/>
<polygon class="st0" points="44.8,72 45,72.2 44.7,72.3 44.6,72.6 44.5,72.3 44.2,72.1 44.5,72 44.7,71.8 "/>
<polygon class="st0" points="39.3,54.7 39.5,54.9 39.3,55 39.1,55.2 39,55 38.7,54.8 39,54.7 39.2,54.4 "/>
<polygon class="st0" points="6.2,81.9 6.4,82.1 6.2,82.2 6,82.4 5.9,82.2 5.6,82 5.9,81.9 6.1,81.6 "/>
<circle class="st0" cx="72.7" cy="26.3" r="0.1"/>
<circle class="st0" cx="68.9" cy="41.4" r="0.1"/>
<circle class="st0" cx="71.4" cy="32.6" r="0.1"/>
<circle class="st0" cx="64.7" cy="26.7" r="0.2"/>
<circle class="st0" cx="50.5" cy="51.8" r="0.1"/>
<circle class="st0" cx="39" cy="62.1" r="0.1"/>
<circle class="st0" cx="45.9" cy="56.2" r="0.1"/>
<circle class="st0" cx="43.7" cy="47.6" r="0.2"/>
<polygon class="st0" points="77.8,41.2 77.6,41.1 77.8,40.9 77.9,40.6 78.1,40.9 78.4,40.9 78.1,41.1 78,41.4 "/>
<circle class="st0" cx="82.2" cy="43" r="0.1"/>
<circle class="st0" cx="79.9" cy="47.9" r="0.1"/>
<circle class="st0" cx="84.3" cy="37.2" r="0.2"/>
<circle class="st0" cx="76.4" cy="34.7" r="0.1"/>
<polygon class="st0" points="65.4,9.9 65.2,9.7 65.5,9.7 65.7,9.5 65.7,9.8 65.9,10 65.6,10 65.4,10.2 "/>
<circle class="st0" cx="68" cy="13.9" r="0.1"/>
<circle class="st0" cx="63.3" cy="16.7" r="0.1"/>
<circle class="st0" cx="73" cy="10.3" r="0.2"/>
<circle class="st0" cx="67.9" cy="3.7" r="0.1"/>
<polygon class="st0" points="24.5,78.5 24.2,78.4 24.4,78.2 24.5,78 24.7,78.2 25,78.3 24.7,78.5 24.7,78.7 "/>
<circle class="st0" cx="28.8" cy="80.3" r="0.1"/>
<circle class="st0" cx="26.6" cy="85.2" r="0.1"/>
<circle class="st0" cx="31" cy="74.5" r="0.2"/>
<circle class="st0" cx="23" cy="72" r="0.1"/>
<polygon class="st0" points="9.2,65.1 9.3,64.9 9.4,65.1 9.7,65.3 9.4,65.4 9.2,65.7 9.1,65.4 8.9,65.2 "/>
<circle class="st0" cx="5.9" cy="68.5" r="0.1"/>
<circle class="st0" cx="2.1" cy="64.6" r="0.1"/>
<circle class="st0" cx="10.5" cy="72.6" r="0.2"/>
<circle class="st0" cx="15.7" cy="66.1" r="0.1"/>
</svg>
