<?xml version="1.0" encoding="utf-8"?>
<!-- Generator: Adobe Illustrator 26.5.0, SVG Export Plug-In . SVG Version: 6.00 Build 0)  -->
<svg version="1.1" id="Layer_1" xmlns="http://www.w3.org/2000/svg" xmlns:xlink="http://www.w3.org/1999/xlink" x="0px" y="0px"
	 viewBox="0 0 484 196.1" style="enable-background:new 0 0 484 196.1;" xml:space="preserve">
<style type="text/css">
	.st0{opacity:0.6;}
	.st1{fill:#FFFFFF;}
</style>
<g class="st0">
	<polygon class="st1" points="130.1,49.4 130.1,50.6 129,49.8 127.7,49.8 128.6,49.1 128.6,47.9 129.7,48.7 130.9,48.7 	"/>
	<polygon class="st1" points="77.5,11.3 76.2,11.3 76.5,10.5 76.5,9.4 77.5,9.8 78.6,9.8 78.2,10.5 78.2,11.7 	"/>
	<polygon class="st1" points="24.8,84.9 23.5,85.7 23.5,84.6 22.8,83.1 24.4,83.4 25.6,82.7 25.6,83.8 26.3,85.3 	"/>
	<polygon class="st1" points="14.9,67 14.1,66.2 15.3,65.8 15.6,65.1 16,65.8 17.1,66.6 16,67 15.3,67.9 	"/>
	<polygon class="st1" points="82,75.8 81.2,76.9 80.9,75.8 80.1,75 81.2,74.6 82,73.9 82,75 83.1,75.8 	"/>
	<polygon class="st1" points="150.2,64 149.5,65.1 149.1,64 148.3,63.2 149.5,62.8 150.2,62.1 150.6,63.2 151.5,64 	"/>
	<circle class="st1" cx="133.5" cy="31.8" r="0.4"/>
	<circle class="st1" cx="49.9" cy="29.7" r="0.4"/>
	<circle class="st1" cx="60.6" cy="51" r="0.7"/>
	<circle class="st1" cx="92.3" cy="30.8" r="0.7"/>
	<circle class="st1" cx="110.2" cy="28.1" r="0.7"/>
	<circle class="st1" cx="6.4" cy="96.4" r="0.4"/>
	<circle class="st1" cx="146.8" cy="11.4" r="0.4"/>
	<circle class="st1" cx="57.2" cy="14.3" r="0.4"/>
	<circle class="st1" cx="82.4" cy="62.1" r="1.1"/>
	<circle class="st1" cx="81.6" cy="28.5" r="0.7"/>
	<circle class="st1" cx="3.1" cy="52.5" r="0.4"/>
	<polygon class="st1" points="305.2,59.8 303.7,62.5 302.6,59.8 300,58 302.6,56.8 304.1,54 305.6,56.8 308.2,58.3 	"/>
	<polygon class="st1" points="199.1,95.6 197.6,98.3 196.1,95.6 193.5,94.1 196.1,92.6 197.6,90 199.1,92.6 201.8,94.1 	"/>
	<polygon class="st1" points="353,72.6 351.5,72.2 352.3,71.1 352.3,70 353.4,70.7 354.9,70.7 354.1,71.8 354.1,73.3 	"/>
	<polygon class="st1" points="220.9,23.8 220.1,22.7 221.6,22.7 222.7,22 222.7,23.5 223.5,24.6 222,24.6 220.9,25.5 	"/>
	<polygon class="st1" points="181.5,50.6 180.4,50.6 180.8,49.5 180.8,48.4 181.9,49.1 183.2,49.1 182.3,49.9 182.3,51 	"/>
	<polygon class="st1" points="259.5,16.7 258,16.7 259.1,15.6 259.1,13.9 260.2,15.2 261.4,15.2 260.6,16.3 260.6,17.8 	"/>
	<polygon class="st1" points="293,12.8 292.3,12 293.4,11.7 293.8,10.9 294.2,12 295.3,12.4 294.2,12.8 293.4,13.9 	"/>
	<polygon class="st1" points="198.8,9.4 198,8.7 199.1,8.3 199.5,7.5 199.9,8.7 201,9 199.9,9.4 199.1,10.5 	"/>
	<polygon class="st1" points="219.7,75.8 219,75 220.1,74.6 220.5,73.5 220.9,74.6 222,75.4 220.9,75.8 220.1,76.5 	"/>
	<polygon class="st1" points="335.4,117.6 334.6,116.4 336.1,116.4 337.4,115.7 337.4,116.8 338.2,117.9 337.1,118.3 335.7,119.1 	
		"/>
	<polygon class="st1" points="234.2,166.3 233.8,164 236.2,165.2 238.5,164.8 237.4,167 237.7,169.3 235.3,168.2 233.1,168.5 	"/>
	<polygon class="st1" points="268.3,142.3 269.8,141.9 269.4,143.4 269.8,144.6 268.7,144.2 267,144.9 267.5,143.4 267,142.3 	"/>
	<polygon class="st1" points="196.9,165.2 196.1,164 197.6,164 198.8,163.7 198.8,164.8 199.1,166.3 198,165.9 196.5,166.7 	"/>
	<polygon class="st1" points="247.3,99.6 247.3,98.3 248.4,99.2 249.5,99.6 248.8,100.3 248.4,101.4 247.7,100.7 246.5,100.7 	"/>
	<polygon class="st1" points="330.2,162.1 328,160.2 331,159.1 332.8,156.8 333.6,159.8 336.4,161.7 333.2,162.5 331.3,164.9 	"/>
	<circle class="st1" cx="308.6" cy="138.2" r="0.4"/>
	<circle class="st1" cx="289.7" cy="174.7" r="0.4"/>
	<circle class="st1" cx="248.8" cy="183.3" r="0.7"/>
	<circle class="st1" cx="308.6" cy="164" r="0.7"/>
	<polygon class="st1" points="146.5,174.7 147.2,175.9 145.7,175.9 144.6,176.2 144.6,175.1 143.8,173.6 145.3,174 146.5,173.2 	"/>
	<polygon class="st1" points="114.4,106.7 115.5,105.9 115.5,107.4 116.3,108.6 114.8,108.6 113.7,109.3 113.7,107.8 112.9,106.7 	
		"/>
	<polygon class="st1" points="104.3,155.8 106,156.2 105.2,157.3 104.7,158.6 103.5,157.7 102.4,157.7 103.2,156.5 103.2,155 	"/>
	<polygon class="st1" points="69.1,114 68.3,115.5 67.6,114.4 66.2,114 67.6,112.9 67.9,111.8 68.7,112.9 70.2,113.3 	"/>
	<polygon class="st1" points="49.6,106.3 48.4,106.3 49.2,105.2 49.2,104.1 49.9,104.8 51.1,104.8 50.7,105.6 50.7,106.7 	"/>
	<polygon class="st1" points="74.3,185.4 75,186.2 74.3,186.5 73.5,187.7 73.2,186.5 72,185.8 73.2,185.4 73.9,184.7 	"/>
	<polygon class="st1" points="168.6,188.8 169.3,189.5 168.2,189.9 167.8,191 167.5,189.9 166.3,189.2 167.5,188.8 168.2,188 	"/>
	<polygon class="st1" points="147.6,122.8 148.3,123.6 147.6,123.9 146.8,124.7 146.5,123.9 145.3,123.2 146.5,122.8 147.2,121.7 	
		"/>
	<circle class="st1" cx="275" cy="14.3" r="0.4"/>
	<circle class="st1" cx="260.6" cy="72" r="0.4"/>
	<circle class="st1" cx="270.2" cy="38.5" r="0.4"/>
	<circle class="st1" cx="244.5" cy="16" r="0.7"/>
	<circle class="st1" cx="190.3" cy="111.8" r="0.4"/>
	<circle class="st1" cx="172.9" cy="128.4" r="0.4"/>
	<circle class="st1" cx="164.5" cy="95.6" r="0.7"/>
	<circle class="st1" cx="311.4" cy="78.2" r="0.4"/>
	<circle class="st1" cx="302.6" cy="96.8" r="0.4"/>
	<circle class="st1" cx="320" cy="30.8" r="0.7"/>
	<circle class="st1" cx="289.3" cy="46.5" r="0.4"/>
	<circle class="st1" cx="85.4" cy="188.8" r="0.4"/>
	<polygon class="st1" points="32.7,162.4 33.1,161.6 33.4,162.4 34.8,163.3 33.4,163.7 32.7,164.8 32.3,163.7 31.6,162.9 	"/>
	<circle class="st1" cx="14.1" cy="143.4" r="0.4"/>
	<polygon class="st1" points="129.8,30 128.3,32.7 126.8,30 124.2,28.5 126.8,27 128.3,24.4 129.8,27 132.4,28.5 	"/>
	<polygon class="st1" points="419.3,134 416.7,132.5 419.3,131.3 421.2,128.7 422.3,131.3 425.1,132.8 422.3,134.3 420.8,137 	"/>
	<polygon class="st1" points="383.5,27.9 380.9,26.4 383.5,24.9 385,22.3 386.5,24.9 389.1,26.4 386.5,27.9 385,30.5 	"/>
	<polygon class="st1" points="406.5,181.8 406.9,180.3 408,181 409.2,181 408.4,182.1 408.4,183.6 407.3,182.9 405.8,182.9 	"/>
	<polygon class="st1" points="455.3,49.6 456.4,48.9 456.4,50.4 457.1,51.5 455.6,51.5 454.5,52.2 454.5,50.7 453.6,49.6 	"/>
	<polygon class="st1" points="428.5,10.3 428.5,9.1 429.6,9.5 430.7,9.5 430,10.6 430,11.9 429.2,11 428.1,11 	"/>
	<polygon class="st1" points="462.4,88.2 462.4,86.7 463.5,87.9 465.2,87.9 463.9,89 463.9,90.1 462.8,89.4 461.3,89.4 	"/>
	<polygon class="st1" points="466.3,121.8 467.1,121 467.5,122.2 468.2,122.5 467.1,122.9 466.7,124 466.3,122.9 465.2,122.2 	"/>
	<polygon class="st1" points="469.7,27.5 470.5,26.8 470.8,27.9 471.6,28.3 470.5,28.6 470.1,29.8 469.7,28.6 468.6,27.9 	"/>
	<polygon class="st1" points="403.4,48.5 404.1,47.7 404.5,48.9 405.6,49.2 404.5,49.6 403.7,50.7 403.4,49.6 402.6,48.9 	"/>
	<polygon class="st1" points="361.6,164.1 362.7,163.4 362.7,164.9 363.4,166.2 362.3,166.2 361.2,166.9 360.8,165.8 360.1,164.5 	
		"/>
	<polygon class="st1" points="379.5,76 380.9,76 379.9,77.2 379.5,78.3 378.8,77.5 377.7,77.2 378.4,76.4 378.4,75.3 	"/>
	<circle class="st1" cx="464.8" cy="103.8" r="0.4"/>
	<circle class="st1" cx="407.1" cy="89.4" r="0.4"/>
	<circle class="st1" cx="440.7" cy="98.9" r="0.4"/>
	<circle class="st1" cx="463.1" cy="73.2" r="0.7"/>
	<circle class="st1" cx="367.4" cy="19.1" r="0.4"/>
	<circle class="st1" cx="400.9" cy="140.1" r="0.4"/>
	<circle class="st1" cx="382.4" cy="131.3" r="0.4"/>
	<circle class="st1" cx="448.3" cy="148.8" r="0.7"/>
	<circle class="st1" cx="432.6" cy="118" r="0.4"/>
</g>
</svg>
