<?xml version="1.0" encoding="utf-8"?>
<!-- Generator: Adobe Illustrator 26.5.0, SVG Export Plug-In . SVG Version: 6.00 Build 0)  -->
<svg version="1.1" id="Layer_1" xmlns="http://www.w3.org/2000/svg" xmlns:xlink="http://www.w3.org/1999/xlink" x="0px" y="0px"
	 viewBox="0 0 328.3 52" style="enable-background:new 0 0 328.3 52;" xml:space="preserve">
<style type="text/css">
	.st0{fill:none;stroke:#FFFFFF;stroke-miterlimit:10;}
	.st1{fill:#FFFFFF;}
</style>
<rect x="2" y="2" class="st0" width="48" height="48"/>
<path class="st1" d="M21,33.3l-3-1.5c-1.2-0.6-1.9-1.2-1.9-2.3s0.9-2.1,2.7-2.1c1.1,0,2.1,0.5,2.8,1.3l0.7,2.2H24v-3.7
	c-1.5-0.9-3.2-1.4-5-1.4c-4.4,1-6.2,2.8-6.2,5s1.4,3.3,3.3,4.3l3,1.4c1.4,0.7,2.1,1.5,2.1,2.7c0,1.4-1,2.5-2.4,2.5
	c-0.1,0-0.2,0-0.3,0c-1.3,0-2.4-0.6-3.2-1.6l-0.8-2.2h-2l0.5,3.9c1.5,1,3.3,1.6,5.1,1.6c4.4-1.1,6.6-2.8,6.6-5.5
	C24.7,35.8,23.7,34.6,21,33.3z M26.3,8.6l-2.5,0.1L21,8.6l-0.1,1l1.9,0.3v8.7c0,2.7-1.2,4.2-3.5,4.2s-3.5-1.6-3.5-4.2V9.9l1.6-0.3
	l-0.1-1l-3.6,0.1l-3-0.1l-0.1,1l1.7,0.3v8.7c0,3.5,1.8,5.9,6.8,5.9c4.4-1,5.6-3,5.6-6V9.9l1.7-0.3L26.3,8.6z M29.7,20.5l1.1-0.5
	c2-0.6,3.3-2.5,3.4-4.6c0.1-1.7-1.2-3.2-3-3.3c-0.1,0-0.2,0-0.3,0l-1.1,0.5c-2.1,1-3.4,2.5-3.4,4.6c-0.1,1.7,1.2,3.1,2.9,3.2
	C29.4,20.5,29.5,20.5,29.7,20.5z M30.2,13.3c1,0.2,1.7,1,1.7,2.7c0,1.3-0.5,2.9-1.5,3.5c-1-0.2-1.6-1-1.6-2.7
	C28.7,15.4,29.1,13.8,30.2,13.3z M39.6,8.5l-2,1.1c-0.8,0.5-1.3,1.4-1.4,2.3l-0.1,0.6h-0.9l-0.8,0.7l-0.1,0.3h1.6l-1.3,7.2
	c-0.1,0.5-0.3,1-0.6,1.4h-1.9L31.9,24h1.2l1.8-1.2c1-0.5,1.7-1.4,2-2.5l1.1-6.7h1.8l0.2-1h-1.8l0.3-1.5c0.1-0.4,0.2-0.8,0.5-1.1h2
	l0.3-1.6L39.6,8.5z M37.6,40.2c-0.9,0.8-1.2,1.6-2.8,1.6c-3.4,0-4.8-3.5-4.8-7.6c0-4.4,1.5-6.9,4.5-6.9c2,0,2.4,0.9,3,1.8l0.8,2.4
	H40v-4.1c-1.5-1-3.2-1.6-5-1.6c-6,0.9-9,3.6-9,9.2c0,5.5,3.6,8.5,8.2,8.5c1.9-0.3,3.8-0.9,5.6-1.7l0.5-4.3h-1.6L37.6,40.2z"/>
<path class="st1" d="M70,36c1.4,1.7,3.5,2.7,5.8,2.7c3.3,0,5.3-2,5.3-4.9c0-2.5-1.6-4-4.1-5.2l-5-2.3c-3.2-1.5-5.6-3.5-5.6-7.1
	c0-4.3,3.7-7.1,10.4-8.6c2.8,0,5.6,0.9,8,2.4v6h-2.5L81,15.2c-1.3-1.4-3.1-2.2-5-2.1c-3.2,0-5,1.7-5,4.2c0,2.1,1.5,3.4,3.6,4.4
	l5.1,2.3c3.9,1.8,6.2,3.9,6.2,7.9c0,4.3-3.2,7.7-10.9,9.5c-3.2,0-6.2-1-8.8-2.8l-0.9-6.1h3.2L70,36z"/>
<path class="st1" d="M108.1,29.7c0,6.5-4.3,10.4-10.6,11.6c-5.5,0-9.4-4.8-9.4-10.6c0-6.6,4.3-10.4,10.7-11.6
	C104.2,19,108.1,23.8,108.1,29.7z M98.6,39c2.8,0,4.4-3.5,4.4-8c0-5.8-2.3-9.7-5.4-9.7c-2.8,0-4.3,3.5-4.3,8
	C93.2,34.7,95.4,39,98.6,39z"/>
<path class="st1" d="M128.7,35.1c-0.1,1,0.1,2.1,0.5,3h1.9l0.2,1.7l-6,1.1l-1.2-3.5l-6,3.8c-5.3,0-6.6-1.8-6.6-6.6V22.4l-2.7,0.2
	l-0.2-1.8l5.2-1.1l2.5-0.2v15c0,2,0.8,2.9,2.8,2.9c1.1,0,2.6-0.8,3.9-1.8l0.8-0.5V22.4l-2.3,0.2l-0.2-1.8l4.8-1.1l2.5-0.2
	L128.7,35.1z"/>
<path class="st1" d="M152.9,38.5L155,39l-0.2,1.7l-4.2-0.1l-5,0.1l-0.2-1.6l2.7-0.5V14.3l-2.7,0.1l-0.2-1.7l5.4-1.3l2.3-0.2V23
	l6.2-4c5.1,0,6.3,1.8,6.3,7v12.5l2.9,0.5l-0.2,1.7l-5-0.1l-4.2,0.1l-0.2-1.6l1.9-0.5v-13c0-2-0.9-2.8-2.5-2.8
	c-1.2,0-2.7,0.9-4.1,1.8l-1.1,0.7V38.5z"/>
<path class="st1" d="M203.7,31.5l-1,6.7c-3.1,1.5-6.5,2.6-9.9,3.1c-8-0.2-14.3-6.8-14.1-14.8v-0.1c0-9.5,6.9-14.7,15.1-15.9
	c3.3,0.1,6.6,1.1,9.3,3.1V20h-2.6l-1.3-4c-1.4-2-3.7-3.1-6.1-3c-5.7,0-8.6,4.4-8.6,12.3c0,6.9,2.7,13.5,9.4,13.5
	c2.6,0,3.8-1.4,5.1-2.5l2.2-4.8H203.7z"/>
<path class="st1" d="M214.2,19c5.6,0,7.1,1.4,7.1,6.6v10.3c-0.1,1.1,0.1,2.2,0.7,3.2h2l0.2,1.7l-6.2,0.6l-1.3-3.6l-4.9,3.6
	c-3.7,0-6.4-2.1-6.4-5.5c0-1.5,0.6-2.9,1.6-4l9.4-3v-3.5c0-2.5-0.4-3.7-2.3-3.7c-1,0-2.1,0.3-3,0.7l-0.7,3.7h-4.3v-3.6L214.2,19z
	 M216.5,30.4l-5.3,2.2c-0.6,0.7-0.9,1.6-0.9,2.5c0,2.1,1.2,2.8,2.3,2.8c0.9-0.1,1.8-0.4,2.5-1l1.5-1L216.5,30.4z"/>
<path class="st1" d="M232.6,25.5l4.6-6.3h4.2l-1.2,4.9h-3c-1.4,0.7-2.7,1.7-3.6,2.9l-0.7,0.8v10.6l4.4,0.4l-0.2,1.8l-6.5-0.1
	l-4.9,0.1l-0.2-1.6l2.7-0.5V22.4l-2.7,0.2l-0.2-1.7l5.2-1.2l1.9-0.2L232.6,25.5z"/>
<path class="st1" d="M260.8,29.7c0,6.5-4.3,10.4-10.6,11.6c-5.5,0-9.4-4.8-9.4-10.6c0-6.6,4.3-10.4,10.6-11.6
	C256.9,19,260.8,23.8,260.8,29.7z M251.3,39c2.8,0,4.4-3.5,4.4-8.1c0-5.8-2.3-9.7-5.4-9.7c-2.8,0-4.4,3.5-4.4,8
	C245.9,34.7,248.1,39,251.3,39z"/>
<path class="st1" d="M266.2,40.5l-5,0.1L261,39l2.7-0.5V14.3l-2.7,0.1l-0.2-1.7l5.4-1.3l2.3-0.2v27.3l2.9,0.5l-0.2,1.7L266.2,40.5z"
	/>
<path class="st1" d="M278.4,40.5l-5,0.1l-0.2-1.6l2.7-0.5V22.4l-2.7,0.2l-0.2-1.7l5.4-1.2l2.3-0.2v19l2.8,0.5l-0.2,1.7L278.4,40.5z
	 M276.1,11.7l3.4-0.2l1.2,0.2l0.2,2.5l-0.5,2.2l-3.4,0.3l-1.3-0.3l-0.2-2.5L276.1,11.7z"/>
<path class="st1" d="M290.8,40.5l-5,0.1l-0.2-1.6l2.7-0.5V22.4l-2.8,0.2l-0.2-1.7l5.4-1.2l2.1-0.1L293,23l6.3-4
	c5.1,0,6.3,1.6,6.3,6.6v12.9l2.9,0.5l-0.2,1.7l-5-0.1l-4.3,0.1l-0.2-1.6l1.9-0.5v-13c0-2-0.9-2.8-2.5-2.8c-1.4,0-2.7,0.9-4,1.8
	l-1.1,0.8v13.2l2,0.5l-0.2,1.7L290.8,40.5z"/>
<path class="st1" d="M317.9,19c5.5,0,7.1,1.4,7.1,6.6v10.3c-0.1,1.1,0.1,2.2,0.7,3.1h2l0.2,1.7l-6.2,0.6l-1.3-3.6l-4.9,3.6
	c-3.7,0-6.4-2.1-6.4-5.5c0-1.5,0.6-2.9,1.6-4l9.4-3v-3.5c0-2.5-0.4-3.7-2.3-3.7c-1.1,0-2.1,0.3-3,0.7l-0.7,3.7h-4.3v-3.6L317.9,19z
	 M320.2,30.4l-5.3,2.2c-0.6,0.7-0.9,1.6-0.9,2.5c0,2.1,1.2,2.8,2.3,2.8c0.9-0.1,1.8-0.4,2.5-1l1.5-1v-5.5H320.2z"/>
<path class="st1" d="M144,37.1c-0.8,0.4-1.7,0.7-2.6,0.7c-1.6,0-2.2-1.2-2.2-2.5V21.6h4.8v-2h-4.9v-5.2h-1.5l-3.2,2.9v2h-1.9
	l-1.6,1.6v0.7h3.4v14.1c0,4,1.7,5.5,5.9,5.5l3.5-1.9L144,37.1z"/>
<path class="st1" d="M41.6,41.6h0.3v-1.5h-0.3l-0.1,0.4h-0.1V40h1.7v0.5H43l-0.1-0.4h-0.3v1.5h0.3v0.1h-1L41.6,41.6z M43.1,41.6h0.2
	v-1.5h-0.2V40h0.7l0.5,1.2v0.2l0.6-1.5h0.7V40h-0.2v1.5h0.2v0.1h-0.8v-0.1H45v-1.1v-0.3l-0.6,1.6h-0.3l-0.5-1.3l-0.1-0.3v1.5h0.2
	v0.1h-0.6L43.1,41.6z"/>
</svg>
