<?xml version="1.0" encoding="utf-8"?>
<!-- Generator: Adobe Illustrator 26.5.0, SVG Export Plug-In . SVG Version: 6.00 Build 0)  -->
<svg version="1.1" id="Layer_1" xmlns="http://www.w3.org/2000/svg" xmlns:xlink="http://www.w3.org/1999/xlink" x="0px" y="0px"
	 viewBox="0 0 162.9 81.3" style="enable-background:new 0 0 162.9 81.3;" xml:space="preserve">
<style type="text/css">
	.st0{fill-rule:evenodd;clip-rule:evenodd;fill:#FFFFFF;}
</style>
<g>
	<path class="st0" d="M156.6,13.6c0,3.9,0.1,7.8,0,11.6c-0.1,3.4-1.5,6.1-4.5,7.9c-3.4,2-7.8,1.6-10.7-1c-0.6-0.6-1.2-1.2-1.7-1.9
		C134.4,23,129.2,15.8,124,8.5c-0.3-0.3-0.5-0.7-0.8-1c-0.8-1.1-1.8-1.4-3.1-1.2c-1.2,0.2-1.9,1-2.1,2.2c-0.1,0.6-0.2,1.2-0.2,1.8
		c0,7.4,0,14.9,0,22.3c0,0.4,0,0.8-0.3,1.2s-0.7,0.6-1.2,0.6c-1.1,0-2.2,0-3.2,0c-0.9,0-1.4-0.6-1.5-1.5c0-0.2,0-0.3,0-0.5
		c0-7.5,0-15.1,0-22.6c0-2.4,0.6-4.7,2.3-6.6c1.7-2,3.9-3.1,6.6-3.2c2.7-0.1,5,0.8,6.9,2.6c0.7,0.7,1.3,1.6,2,2.5
		c5.1,7,10.2,14,15.3,21c0.3,0.4,0.5,0.8,0.9,1.1c1.3,1.3,3.9,1.3,4.8-1c0.2-0.6,0.3-1.2,0.3-1.8c0-7.5,0-15,0-22.5
		c0-0.3,0-0.5,0-0.8c0.1-0.7,0.6-1.2,1.3-1.2c1.2,0,2,0,3.2,0c0.8,0,1.4,0.6,1.4,1.4c0,1.3,0,2.6,0,3.9V13.6L156.6,13.6z"/>
	<path class="st0" d="M103.5,34.4c-0.7,0-1.3,0-2,0c-1,0-1.9-0.5-2.4-1.4c-3.4-5.9-6.8-11.7-10.2-17.6c-1.1-1.8-2-3.7-3.4-5.3
		c-1.4-1.5-2.9-2.8-4.9-3.5c-1.5-0.5-3.1-0.5-4.6,0c-1.7,0.6-3.1,1.7-4.3,3c-1.7,1.8-2.8,3.9-4,5.9c-2.5,4.4-5.1,8.8-7.6,13.2
		c-0.8,1.4-1.6,2.8-2.4,4.2c-0.6,1.1-1.5,1.6-2.8,1.6c-1.2,0-2.4,0-3.6,0c-0.2,0-0.4,0-0.6-0.1c-0.5-0.1-0.7-0.5-0.5-1
		s0.5-0.9,0.7-1.3c3.2-5.6,6.5-11.3,9.7-16.9c1.3-2.3,2.7-4.6,4.1-6.9c1.7-2.6,3.8-4.8,6.5-6.3C76.3-1,82.1-0.6,87,3
		c2.6,1.9,4.6,4.4,6.2,7.2c2.8,4.8,5.6,9.6,8.4,14.4c1.6,2.8,3.2,5.6,4.8,8.4c0,0.1,0.1,0.1,0.1,0.2c0.4,0.8,0.1,1.2-0.8,1.3
		c-0.1,0-0.3,0-0.4,0C104.7,34.4,104.1,34.4,103.5,34.4"/>
	<path class="st0" d="M6,0c0.6,0,1.2,0,1.8,0c1.2,0,2,0.5,2.6,1.5C11.3,3,12.1,4.5,13,6c2.6,4.6,5.3,9.2,7.9,13.8
		c0.9,1.6,1.8,3.2,3.1,4.6c1.3,1.5,2.9,2.8,4.8,3.5c2.2,0.7,4.3,0.4,6.3-0.8c2-1.2,3.6-2.9,4.8-4.9c1.9-3.2,3.8-6.5,5.7-9.8
		c2.1-3.6,4.1-7.2,6.2-10.8c0.6-1,1.4-1.5,2.5-1.5h3.9c0.1,0,0.3,0,0.4,0c0.5,0.1,0.8,0.6,0.6,1.1c-0.1,0.3-0.3,0.5-0.4,0.8
		c-3.2,5.6-6.4,11.2-9.7,16.8c-1.5,2.5-2.9,5.1-4.5,7.6c-1.7,2.7-4,4.9-6.8,6.4c-4.2,2.2-8.4,2.4-12.7,0.4c-3.1-1.5-5.5-3.8-7.4-6.6
		c-1.2-1.8-2.3-3.7-3.4-5.6c-2.2-4-4.5-7.9-6.8-11.9c-1.4-2.5-2.9-5-4.4-7.6C3.1,1.4,3,1.4,3,1.3C2.6,0.5,2.9,0,3.7,0S5.2,0,6,0"/>
	<path class="st0" d="M57,55.2c1.1,0.6,2,1.4,2.6,2.4c1.2,2.1,0.9,5-0.8,6.7c-1.2,1.3-2.7,1.9-4.5,1.9c-1.4,0-2.9,0-4.3,0
		c-1,0-1.3-0.4-1.3-1.3c0-5.6,0-11.1,0-16.7c0-0.9,0.3-1.3,1.2-1.3c1.2,0,2.4,0,3.7,0c2.6,0,4.8,2.3,4.7,4.7c0,1.2-0.3,2.2-1.1,3.1
		C57.1,54.9,57.1,55,57,55.2 M50.7,64.3c1.4,0,2.7,0,3.9,0c2.6,0,4.5-2.8,3.4-5.4c-0.7-1.6-2-2.4-3.7-2.4c-1.1,0-2.1,0-3.2,0
		c-0.2,0-0.4,0-0.6,0v7.8H50.7z M50.7,54.7c1.1,0,2.1,0,3.2,0c0.7,0,1.4-0.4,1.9-1c0.8-0.9,1-2,0.5-3.1s-1.3-1.7-2.6-1.7
		c-0.8,0-1.6,0-2.4,0c-0.2,0-0.4,0-0.6,0.1C50.7,49,50.7,54.7,50.7,54.7z"/>
	<path class="st0" d="M86.4,56.6c0.2,4.9-4,9.6-9.6,9.7c-5.3,0-9.6-4.3-9.7-9.6c0-5.5,4.7-9.7,9.7-9.7C82.2,47,86.6,51.5,86.4,56.6
		 M84.5,56.6c0-4.3-3.8-7.9-8.1-7.7C72.9,49,69,52.1,69,56.6c0,4.3,3.7,7.8,7.9,7.7C81.1,64.2,84.5,60.8,84.5,56.6"/>
	<path class="st0" d="M41.8,56.7c0.1,5-4.1,9.6-9.6,9.6s-9.7-4.5-9.7-9.7c0-5.3,4.5-9.7,9.8-9.7C37.4,47,41.9,51.4,41.8,56.7
		 M32.2,48.9c-3.8-0.3-7.7,3.2-7.8,7.6c-0.1,4.3,3.6,7.8,7.6,7.9c4.1,0.1,7.9-3.3,7.9-7.8C39.9,52,35.8,48.6,32.2,48.9"/>
	<path class="st0" d="M5,58.5v0.9c0,1.8,0,3.7,0,5.5c0,0.3,0,0.5-0.1,0.8c-0.1,0.4-0.6,0.6-1,0.5c-0.5-0.1-0.7-0.3-0.8-0.8
		c0-0.2,0-0.3,0-0.5c0-5.5,0-11,0-16.5v-0.1c0-1.1,0.2-1.3,1.3-1.3h4.4c0.1,0,0.2,0,0.3,0c3.1,0.1,5.7,2.9,5.5,6.1
		c-0.1,2.1-1.2,3.7-3,4.8c-0.1,0.1-0.2,0.2-0.4,0.3c0.6,1,1.2,2,1.8,3c0.7,1.2,1.5,2.4,2.2,3.6c0.5,0.7,0.2,1.4-0.5,1.6
		c-0.4,0.1-0.8-0.1-1.1-0.6c-0.6-1-1.2-2-1.9-3c-0.8-1.2-1.5-2.4-2.3-3.6c-0.2-0.3-0.4-0.5-0.9-0.5C7.5,58.5,6.3,58.5,5,58.5
		 M5,56.6c1.4,0,2.8,0,4.1,0c1.8,0,3.8-1.7,3.6-4.2c-0.1-1.7-1.7-3.4-3.3-3.5c-1.4-0.1-2.9,0-4.3,0c0,0-0.1,0-0.1,0.1
		C5,49,5,56.6,5,56.6z"/>
	<path class="st0" d="M132.7,48.9c-3.5-0.2-6.4,2.4-7.4,5.1c-1.7,4.9,1.7,9.6,6.1,10.2c2.2,0.3,4.1-0.1,5.9-1.4
		c0.2-0.2,0.6-0.3,0.9-0.3c0.4,0,0.7,0.3,0.7,0.7c0.1,0.4,0,0.8-0.4,1.1c-1.2,0.8-2.4,1.5-3.8,1.8c-3.3,0.7-6.3-0.1-8.8-2.5
		c-1.6-1.5-2.6-3.4-2.8-5.6c-0.3-2.3,0.1-4.4,1.3-6.4c3.4-5.4,10.1-5.7,14-2.6c0.2,0.2,0.5,0.4,0.6,0.7s0,0.7-0.3,1
		c-0.3,0.2-0.7,0.3-1.1,0.1c-0.1-0.1-0.2-0.1-0.3-0.2C136.2,49.5,134.5,48.8,132.7,48.9"/>
	<path class="st0" d="M156.6,60.8c0.2,2.4-2,4.7-4.4,5.3c-2,0.4-3.7,0-5.2-1.4c-0.3-0.3-0.7-0.7-0.9-1.1c-0.3-0.5-0.2-1,0.2-1.3
		s1-0.2,1.3,0.2c0.7,0.9,1.5,1.5,2.6,1.8c2.3,0.5,4.5-1.3,4.6-3.6c0.1-1.7-0.8-3.1-2.5-3.8c-0.5-0.2-1-0.3-1.5-0.5
		c-0.8-0.2-1.5-0.5-2.2-1c-0.8-0.5-1.3-1.3-1.5-2.2c-0.6-2.4,0.2-4.6,2.5-5.8c2.1-1.1,4.8-0.3,6.1,1.7c0.1,0.2,0.2,0.5,0.3,0.7
		c0.1,0.4-0.2,0.7-0.6,0.9c-0.4,0.2-0.8,0.1-1-0.2s-0.4-0.6-0.7-0.8c-1-1-2.8-1-3.8-0.1c-1.2,1.1-1.3,2.8-0.4,3.9
		c0.2,0.3,0.5,0.5,0.8,0.6c0.5,0.2,1,0.4,1.5,0.6c0.6,0.2,1.2,0.3,1.8,0.6C155.5,56.4,156.6,58,156.6,60.8"/>
	<path class="st0" d="M97.2,48.9c-1.6,0-3.1,0-4.6,0c-0.3,0-0.7,0-1-0.1c-0.5-0.1-0.7-0.4-0.7-0.9s0.3-0.8,0.7-0.9
		c0.2,0,0.4,0,0.6,0c3.9,0,7.9,0,11.8,0c0.2,0,0.4,0,0.6,0c0.4,0.1,0.7,0.5,0.7,0.9s-0.2,0.8-0.6,0.9c-0.3,0.1-0.6,0.1-0.9,0.1
		c-1.3,0-2.6,0-3.9,0c-0.2,0-0.5,0-0.8,0v0.9c0,4.9,0,9.9,0,14.8c0,0.3,0,0.6-0.1,0.8c-0.1,0.5-0.5,0.8-0.9,0.7
		c-0.4,0-0.9-0.4-0.9-0.9c0-0.2,0-0.4,0-0.6V49.8C97.2,49.8,97.2,48.9,97.2,48.9z"/>
	<path class="st0" d="M113.2,56.5v-8.2c0-0.2,0-0.4,0-0.6c0.1-0.5,0.5-0.9,1-0.9s0.8,0.3,0.9,0.9c0,0.2,0,0.3,0,0.5v16.6
		c0,0.1,0,0.3,0,0.4c0,0.5-0.4,0.8-0.9,0.9c-0.5,0-0.9-0.3-1-0.8c0-0.2,0-0.4,0-0.6V56.5z"/>
	<path class="st0" d="M29.6,79.2c0.6-1.5,1.1-2.9,1.6-4.3h1.2c0.1,0.5,0.2,5.3,0,6.3c-0.1,0-0.2,0.1-0.3,0.1s-0.2,0-0.5,0
		c-0.1-0.8,0-1.7,0-2.5c0-0.9,0-1.7-0.1-2.6c-0.6,1.2-1,2.6-1.6,3.9H29c-0.5-1.3-1-2.6-1.5-3.9c-0.1,0-0.1,0-0.2,0
		c0,1.7,0,3.4,0,5.1h-0.9c0-2.1,0-4.2,0-6.3H28C28.5,76.3,29,77.7,29.6,79.2"/>
	<path class="st0" d="M134.6,81.3h-0.8V75h1.3c0.5,1.3,1,2.7,1.5,4.1h0.1c0.5-1.4,1-2.7,1.5-4.1h1.3c0,2.1,0,4.2,0,6.3h-0.9v-5h-0.1
		c-0.5,1.2-0.9,2.6-1.5,3.8h-0.9c-0.5-1.3-1-2.6-1.4-3.8h-0.1L134.6,81.3L134.6,81.3z"/>
	<path class="st0" d="M70.2,77.9c0.7,0.4,1.1,0.8,1.1,1.6c0,0.9-0.5,1.6-1.4,1.8c-0.4,0.1-0.8,0.1-1.2,0.1c-0.5,0-1.1,0-1.6,0H67
		c-0.2-0.5-0.2-5.1-0.1-6.3c0.9,0,1.9-0.1,2.8,0c0.7,0.1,1.2,0.5,1.3,1.2C71.2,76.9,71,77.5,70.2,77.9 M67.7,80.5c0.6,0,1.2,0,1.8,0
		c0.6-0.1,0.9-0.5,0.9-1.1s-0.3-1-0.9-1c-0.6-0.1-1.2,0-1.8,0V80.5z M67.7,77.5c0.6,0,1.1,0,1.6,0c0.7-0.1,1-0.6,0.8-1.2
		c-0.1-0.5-0.5-0.6-0.9-0.7c-0.5,0-1,0-1.5,0V77.5z"/>
	<path class="st0" d="M152.8,76.4v2.4v2.5c-0.3,0-0.5,0-0.8,0V75h1.1c0.9,1.6,1.7,3.3,2.6,5c0.2-1.7,0.1-3.3,0.2-5h0.8v6.3h-1.1
		c-0.8-1.6-1.7-3.3-2.6-5L152.8,76.4z"/>
	<path class="st0" d="M104.5,78.1c0-0.7,0.2-1.3,0.5-1.9c0.6-1,1.4-1.5,2.6-1.5c1.1,0,2,0.5,2.5,1.5c0.6,1.2,0.6,2.4,0,3.6
		c-0.5,1.1-1.5,1.6-2.7,1.5c-1.2,0-2.1-0.6-2.5-1.8C104.7,79.2,104.6,78.7,104.5,78.1 M109.5,78.1c0-0.5-0.1-1.1-0.4-1.6
		c-0.6-1.2-2.2-1.2-2.9-0.4c-0.9,1-1,3.1-0.1,4.1c0.7,0.8,1.9,0.8,2.7,0C109.4,79.6,109.5,78.9,109.5,78.1"/>
	<path class="st0" d="M78.3,78.1c-0.1,1-0.3,2-1.1,2.7c-1.3,1.1-3.7,0.8-4.4-0.9c-0.6-1.3-0.6-2.7,0.2-3.9c0.6-1,1.6-1.3,2.7-1.2
		c1.1,0.1,1.8,0.7,2.2,1.6C78.1,77,78.2,77.6,78.3,78.1 M73.2,78.2c0.2,0.5,0.2,1.1,0.5,1.6c0.3,0.7,0.9,1,1.7,1
		c0.8,0,1.3-0.4,1.6-1.1c0.5-1,0.5-2.1,0-3.1c-0.3-0.7-0.9-1-1.7-1c-0.8,0-1.3,0.4-1.6,1.1C73.4,77.1,73.4,77.6,73.2,78.2"/>
	<path class="st0" d="M132.4,78.1c-0.1,1.1-0.4,2-1.2,2.7c-1.3,1.1-3.7,0.8-4.4-0.9c-0.6-1.3-0.6-2.6,0.2-3.9c0.6-1,1.6-1.3,2.7-1.2
		c1.1,0.1,1.8,0.6,2.3,1.6C132.2,77,132.3,77.6,132.4,78.1 M131.5,78.1c-0.1-0.5-0.2-1-0.5-1.5c-0.3-0.7-0.9-1.1-1.6-1.1
		c-0.8,0-1.3,0.4-1.7,1c-0.5,1-0.5,2-0.1,3c0.3,0.8,0.9,1.2,1.8,1.2c0.8,0,1.4-0.5,1.7-1.3C131.3,79,131.4,78.6,131.5,78.1"/>
	<path class="st0" d="M65.6,78.1c-0.1,1-0.3,2-1.1,2.7c-1.3,1.1-3.7,0.9-4.5-1.1c-0.5-1.2-0.5-2.3,0.1-3.5c0.6-1.1,1.5-1.6,2.8-1.5
		c1.2,0.1,2,0.6,2.4,1.7C65.4,77,65.4,77.6,65.6,78.1 M60.4,78.1c0.1,0.5,0.2,1.1,0.5,1.6c0.3,0.7,0.9,1,1.7,1s1.3-0.4,1.6-1.1
		c0.5-1,0.5-2.1,0-3.1c-0.3-0.7-0.9-1.1-1.6-1.1c-0.8,0-1.4,0.4-1.7,1.1C60.7,77.1,60.6,77.6,60.4,78.1"/>
	<path class="st0" d="M43.3,78.3c0.9,0.8,1.2,1.9,1.8,2.9c-0.8,0.2-0.9,0.2-1.2-0.4c-0.3-0.5-0.5-1-0.8-1.5s-0.7-0.8-1.3-0.8
		c-0.3,0-0.5,0-0.9,0v2.7H40V75c0.9,0,1.7-0.1,2.6,0c0.8,0.1,1.3,0.6,1.5,1.3c0.2,0.8-0.1,1.4-0.8,1.8
		C43.5,78.2,43.4,78.3,43.3,78.3 M41.1,77.8c0.5,0,0.9,0,1.4,0c0.5-0.1,0.8-0.4,0.9-0.9c0-0.6-0.2-1-0.7-1.1s-1-0.1-1.5-0.1v2.1
		H41.1z"/>
	<path class="st0" d="M54.7,81.3h-0.8c-0.1-2.1,0-4.2,0-6.4c0.9,0,1.8-0.1,2.7,0.1c0.8,0.1,1.2,0.6,1.4,1.4c0.1,0.8-0.1,1.5-0.9,1.9
		c0.3,0.5,0.7,0.9,0.9,1.4c0.3,0.5,0.5,1,0.8,1.5c-0.7,0.3-0.8,0.2-1.1-0.3s-0.5-1-0.8-1.5c-0.3-0.6-0.8-0.8-1.4-0.8
		c-0.2,0-0.5,0-0.8,0C54.7,78.6,54.7,81.3,54.7,81.3z M54.7,77.8c0.1,0,0.3,0.1,0.4,0.1c0.3,0,0.6,0,0.9,0c0.6-0.1,0.9-0.4,0.9-1
		s-0.2-1-0.8-1.1c-0.5-0.1-0.9-0.1-1.4-0.1C54.7,75.7,54.7,77.8,54.7,77.8z"/>
	<path class="st0" d="M112.7,81.3h-0.9V75c0.9,0,1.7-0.1,2.6,0c0.8,0.1,1.3,0.6,1.5,1.3c0.2,0.8-0.1,1.4-0.8,1.8
		c-0.1,0-0.1,0.1-0.2,0.1c0.9,0.8,1.2,1.9,1.8,2.9c-0.8,0.2-0.9,0.2-1.2-0.4c-0.3-0.5-0.5-1-0.8-1.5s-0.7-0.8-1.3-0.7
		c-0.3,0-0.5,0-0.9,0v2.8C112.5,81.3,112.7,81.3,112.7,81.3z M112.7,77.8c0.5,0,0.9,0,1.4,0c0.5-0.1,0.8-0.4,0.9-0.9
		c0-0.6-0.2-1-0.7-1.1s-1-0.1-1.5-0.1v2.1H112.7z"/>
	<path class="st0" d="M11.1,81.3c-0.2,0-0.5,0-0.8,0v-3H7.2v2.9c-0.3,0-0.5,0-0.7,0.1c-0.2-0.5-0.2-4.8-0.1-6.4h0.8v2.5h3.1V75h0.9
		L11.1,81.3L11.1,81.3z"/>
	<path class="st0" d="M16.7,78.3h-2.9v2.2c1,0.1,2,0,3.1,0.1v0.7H13c-0.2-0.5-0.2-5.1-0.1-6.3h3.9v0.6h-3.1v1.9h2.9v0.8
		C16.6,78.3,16.7,78.3,16.7,78.3z"/>
	<path class="st0" d="M147.6,75h1c0.8,2.1,1.6,4.2,2.4,6.3c-0.4,0-0.6,0-0.9,0c-0.2-0.6-0.4-1.1-0.6-1.6h-2.9
		c-0.2,0.5-0.4,1-0.6,1.6h-0.9C146,79.1,146.8,77.1,147.6,75 M149.3,78.9c-0.4-1-0.7-2-1.1-2.9h-0.1c-0.3,0.9-0.7,1.9-1.1,2.9H149.3
		z"/>
	<path class="st0" d="M35.9,75h1c0.8,2.1,1.6,4.2,2.4,6.3h-0.9c-0.2-0.5-0.4-1.1-0.6-1.6H35c-0.2,0.5-0.4,1-0.6,1.6h-0.8
		C33.6,80.8,35,76.9,35.9,75 M35.2,78.9h2.3c-0.3-1-0.7-2-1.2-3C36,77,35.6,77.9,35.2,78.9"/>
	<path class="st0" d="M20.9,81v-0.7c0.3,0.1,0.6,0.3,1,0.3c0.6,0.1,1.1,0.1,1.7,0.1c0.5-0.1,0.9-0.5,0.9-1s-0.3-0.9-0.8-1
		c-0.4-0.1-0.7-0.2-1.1-0.3c-0.2-0.1-0.4-0.1-0.6-0.2c-0.7-0.3-1.1-0.8-1.1-1.5c0-0.8,0.4-1.3,1-1.6c0.7-0.3,1.4-0.3,2-0.2
		c0.3,0.1,0.7,0.2,1.1,0.3V76c-0.4-0.1-0.8-0.2-1.2-0.4c-0.5-0.1-0.9-0.1-1.3,0.1s-0.7,0.5-0.7,0.9s0.2,0.7,0.7,0.9
		c0.3,0.1,0.6,0.1,0.9,0.2s0.6,0.1,0.8,0.2c0.9,0.4,1.2,1,1.1,1.9c-0.1,0.8-0.6,1.4-1.5,1.6C22.9,81.6,21.9,81.4,20.9,81"/>
	<path class="st0" d="M97.1,75H98v0.7c0,1,0,2.1,0,3.1c0,0.4,0,0.7-0.1,1.1c-0.2,0.8-0.7,1.3-1.5,1.5c-0.5,0.1-1,0.1-1.6,0
		c-0.8-0.2-1.6-0.7-1.6-1.9c-0.1-1.1,0-2.2,0-3.4c0-0.4,0-0.8,0-1.2H94c0,0.2,0,0.4,0,0.6c0,1,0,2.1,0,3.1c0,0.2,0,0.3,0,0.5
		c0.1,1.5,1,1.7,2.2,1.5c0.4-0.1,0.7-0.4,0.8-0.8c0.1-0.4,0.1-0.8,0.1-1.1C97.1,77.5,97.1,76.2,97.1,75"/>
	<path class="st0" d="M142.1,78.8v2.5h-0.8V75c0.9,0,1.7-0.1,2.5,0c1,0.1,1.6,0.8,1.6,1.8s-0.5,1.7-1.5,1.8
		C143.3,78.8,142.8,78.8,142.1,78.8 M142.1,78c0.5,0,0.9,0,1.3,0c0.6-0.1,0.9-0.4,1-1s-0.2-1.1-0.8-1.3c-0.5-0.2-1-0.1-1.5,0V78z"/>
	<path class="st0" d="M125.5,76.2c-0.3-0.2-0.6-0.4-0.9-0.5c-1.3-0.5-3-0.1-3.2,1.8c-0.1,0.7-0.1,1.3,0.2,1.9
		c0.5,1.2,1.9,1.7,3.2,1.1c0.3-0.1,0.5-0.3,0.8-0.5c0.1,0.8,0.1,0.9-0.6,1.2c-1.3,0.6-3,0.3-3.8-0.7c-0.3-0.3-0.5-0.8-0.6-1.2
		c-0.3-1.2-0.3-2.4,0.5-3.4c0.9-1.1,2-1.2,3.3-1c0.1,0,0.3,0.1,0.4,0.1C125.6,75.3,125.6,75.3,125.5,76.2"/>
	<polygon class="st0" points="104,75 104,75.6 101.8,75.6 101.8,81.3 100.9,81.3 100.9,75.7 98.6,75.7 98.6,75 	"/>
	<path class="st0" d="M47.9,81.3c-0.3,0-0.6,0-0.9,0c-0.1-1,0-1.9,0-2.9c0-0.9,0-1.8,0-2.8h-2.2V75h5.4c0,0.2,0,0.4,0,0.7h-2.3V81.3
		z"/>
	<path class="st0" d="M3.1,81.3H2.3c-0.1-0.9,0-1.9,0-2.8s0-1.8,0-2.8H0V75h5.4c0,0.2,0,0.4,0,0.7H3.1V81.3z"/>
	<polygon class="st0" points="84.1,75 84.1,75.6 81.8,75.6 81.8,81.3 81,81.3 81,75.7 78.7,75.7 78.7,75 	"/>
	<polygon class="st0" points="92.3,75 92.3,75.6 90,75.6 90,81.3 89.1,81.3 89.1,75.7 86.9,75.7 86.9,75 	"/>
	<path class="st0" d="M160.7,81.3h-0.8c0-0.4,0-0.9,0-1.3c0-1.8,0-1.8-1.1-3.3c-0.4-0.6-0.8-1.1-1.2-1.7c0.6-0.2,1,0,1.3,0.5
		c0.4,0.7,0.9,1.3,1.4,2c0.2-0.3,0.4-0.6,0.6-0.8c0.3-0.4,0.5-0.8,0.8-1.2c0.4-0.6,0.4-0.6,1.3-0.5c-0.3,0.5-0.6,1-1,1.4
		c-0.4,0.6-1,1.2-1.2,1.8c-0.2,0.7-0.1,1.5-0.1,2.2C160.7,80.7,160.7,81,160.7,81.3"/>
</g>
</svg>
